<?xml version="1.0" encoding="UTF-8" standalone="no"?>
<!-- Created with Inkscape (http://www.inkscape.org/) -->

<svg
   version="1.1"
   id="svg1"
   width="720"
   height="720"
   viewBox="0 0 720 720"
   xml:space="preserve"
   xmlns:xlink="http://www.w3.org/1999/xlink"
   xmlns="http://www.w3.org/2000/svg"
   xmlns:svg="http://www.w3.org/2000/svg"><defs
     id="defs1"><linearGradient
       id="swatch920"><stop
         style="stop-color:#000000;stop-opacity:1;"
         offset="0"
         id="stop920" /></linearGradient><linearGradient
       id="swatch352"><stop
         style="stop-color:#000000;stop-opacity:1;"
         offset="0"
         id="stop352" /></linearGradient><linearGradient
       id="linearGradient73"><stop
         style="stop-color:#7bf2ec;stop-opacity:1;"
         offset="0"
         id="stop73" /><stop
         style="stop-color:#7bf2ec;stop-opacity:0;"
         offset="1"
         id="stop74" /></linearGradient><radialGradient
       xlink:href="#linearGradient73"
       id="radialGradient74"
       cx="189.52621"
       cy="490.13837"
       fx="189.52621"
       fy="490.13837"
       r="23.170601"
       gradientTransform="matrix(1,0,0,1.0352231,0,-17.264209)"
       gradientUnits="userSpaceOnUse" /></defs><g
     id="g1"><g
       id="g71"
       style="display:inline"><path
         style="fill:#666666;fill-opacity:1;stroke:none;stroke-width:0.530411;stroke-opacity:1"
         d="m 629.00092,289.88878 c -0.9579,-0.44468 -4.49175,-2.54209 -7.5289,-5.63319 -3.03714,-3.09111 -8.17841,-6.74269 -10.66883,-8.4387 -8.52098,-5.80294 -30.25799,-10.85293 -37.48037,-11.89909 -3.14341,-0.45532 -1.26051,-2.98714 3.10769,-3.40657 2.07787,-0.19951 23.19072,-3.17391 35.54551,-4.23994 l 22.3984,-3.52361 17.72312,-5.25466 c 17.18184,-5.09417 18.83095,-5.99686 31.94276,-12.75285 7.62636,-3.92955 13.99163,-7.01345 14.14505,-6.85311 0.41153,0.43008 -1.93758,5.73423 -4.43251,10.00838 -7.52151,12.88535 -21.21858,26.26493 -39.9369,39.01119 -3.81467,2.59761 -8.46544,5.87941 -10.33504,7.29289 -7.44401,5.62795 -11.32621,7.15329 -14.47998,5.68926 z"
         id="path41" /><path
         style="fill:#87ecc7;fill-opacity:1;stroke:none;stroke-width:0.256489;stroke-opacity:1"
         d="m 490.79085,284.31756 c -0.25533,-0.28214 -0.34882,-0.51298 -0.20775,-0.51298 0.14107,0 0.46539,0.23084 0.72073,0.51298 0.25533,0.28214 0.34881,0.51298 0.20774,0.51298 -0.14106,0 -0.46539,-0.23084 -0.72072,-0.51298 z"
         id="path54" /><path
         style="fill:#87ecc7;fill-opacity:1;stroke:none;stroke-width:0.184938;stroke-opacity:1"
         d="m 608.07989,422.8385 c -7.37226,-3.69894 -17.6095,-6.57521 -26.94676,-7.57099 -1.87182,-0.19961 -4.61807,-0.2859 -9.09983,-0.2859 -8.54814,0 -11.19723,-0.35441 -14.21985,-1.90238 -3.81125,-1.95183 -5.62439,-7.05102 -6.348,-17.8527 -0.10643,-1.58879 -0.36696,-4.98537 -0.57895,-7.54793 -0.45837,-5.54075 -0.40025,-9.90266 0.24089,-18.07776 0.59331,-7.56533 0.59482,-17.10304 0.003,-20.96648 -0.64563,-4.21689 -1.37943,-7.65732 -3.35452,-15.72747 -1.00625,-4.11148 -2.11871,-8.90022 -2.47212,-10.64164 -0.69757,-3.43714 -1.36714,-8.29026 -1.35762,-9.84012 l 0.006,-0.9713 2.07623,2.00468 c 4.67749,4.51626 8.39676,9.71773 12.01361,16.41708 6.43869,11.92611 7.41636,17.55909 10.92396,33.06977 2.38226,10.53441 3.36285,14.15828 5.55375,18.508 1.94069,3.85294 6.49055,8.06219 9.44825,10.12902 1.44394,1.00904 0.5838,1.23631 -0.12724,1.10428 -1.46932,-0.27283 -3.77591,-0.56333 -4.66107,-0.21635 -1.27628,0.50028 -3.3318,0.94008 -3.69658,2.47213 -0.11317,0.47529 -1.49181,-0.23365 0.45622,0.33498 2.22323,0.64896 2.64737,0.73017 7.95011,1.52205 7.27665,1.08666 8.69497,1.69349 14.92915,6.38758 5.72491,4.31063 8.39864,5.56513 13.64252,6.40106 2.6988,0.4302 8.64793,0.42926 11.89395,-0.002 2.69772,-0.35831 7.07834,-1.22752 8.98035,-1.78187 0.69993,-0.20399 1.30117,-0.3419 1.33606,-0.30645 0.0751,0.0762 -9.50015,7.55919 -13.83732,10.1932 -3.49194,2.12069 -9.65969,5.34375 -10.73578,5.61018 -0.65937,0.16325 -0.86478,0.11616 -2.01869,-0.4628 z"
         id="path92" /><path
         style="fill:#87ecc7;fill-opacity:1;stroke:none;stroke-width:0.197759;stroke-opacity:1"
         d="m 612.53881,404.70296 c -3.93753,-0.58631 -7.92061,-2.08896 -11.25944,-4.24771 -2.24467,-1.45131 -3.64832,-2.60517 -3.30974,-2.72075 0.14954,-0.0511 0.95153,-0.3232 1.78219,-0.60474 2.24411,-0.76064 6.68711,-3.02135 8.8545,-4.50541 2.31568,-1.5856 6.05078,-5.01949 7.75795,-7.13232 2.89617,-3.58441 5.29781,-7.9426 6.74248,-12.23545 0.25163,-0.74771 0.64475,-1.55781 0.87359,-1.80019 1.14872,-1.21668 3.93604,-2.37539 5.71415,-2.37539 2.04007,0 4.53387,0.95083 6.90805,2.63391 2.59501,1.83961 5.982,6.22088 7.89704,8.61161 l 1.74068,2.17306 c -1.42271,-0.25727 -1.60245,-0.28326 -3.03462,-0.45886 0.73239,1.05157 1.16688,1.79531 1.51362,2.43302 0.50427,0.92746 1.05265,2.3569 1.4113,3.22662 0.59311,1.43825 0.55345,1.1669 0.56129,3.10998 0.007,2.00968 -0.35796,2.70582 -0.91622,3.67765 -0.75702,1.318 -2.70985,3.08121 -4.58625,4.1409 -4.37947,2.47331 -13.29164,5.31928 -19.04206,6.08079 -2.74871,0.36401 -7.14003,0.36101 -9.60851,-0.006 z"
         id="path93" /><path
         style="fill:#87ecc7;fill-opacity:1;stroke:none;stroke-width:0.195184;stroke-opacity:1"
         d="m 575.63411,440.28484 c -2.68738,-0.50521 -5.74985,-1.88919 -7.9664,-3.60011 -2.77926,-2.14529 -5.66307,-5.83868 -7.85788,-10.06382 -0.91369,-1.7589 -2.73751,-6.06433 -2.73751,-6.46233 0,-0.32657 4.63389,-0.66255 9.07792,-0.6582 4.46186,0.004 8.02659,0.22867 11.59606,0.72963 1.10853,0.15558 2.06094,0.28286 2.11646,0.28286 0.0555,0 -0.16875,0.28817 -0.49838,0.64036 -0.82048,0.87665 -2.7082,3.59855 -3.24884,4.68451 -1.38999,2.792 -1.6225,5.81722 -0.6093,7.92757 0.968,2.01618 2.44172,3.39627 5.23179,4.89938 1.49054,0.80301 1.52755,0.75477 -0.94686,1.23415 -1.84742,0.35792 -3.49348,0.51076 -4.15706,0.386 z"
         id="path94" /><path
         style="fill:#ffffff;fill-opacity:1;stroke:none;stroke-width:0.353553;stroke-dasharray:none;stroke-opacity:1"
         d="m 175.72603,494.4447 c -3.69951,-0.66854 -6.88411,-2.33878 -8.5009,-4.4585 l -0.91425,-1.19864 h 1.06055 c 2.23212,0 9.2987,-1.09897 12.6366,-1.9652 6.50307,-1.68763 11.65135,-3.67729 22.70539,-8.77494 2.7924,-1.28774 5.13911,-2.34133 5.21492,-2.34133 0.0758,0 0.13682,2.26716 0.1356,5.03813 l -0.002,5.03814 -1.14681,0.66479 c -5.42255,3.14336 -13.08717,6.08494 -18.98862,7.28758 -4.04786,0.8249 -9.73338,1.15576 -12.20024,0.70997 z"
         id="path995" /><ellipse
         style="display:inline;fill:url(#radialGradient74);fill-opacity:1;stroke:none;stroke-width:2.03097;stroke-opacity:1"
         id="path72"
         cx="189.52621"
         cy="490.13837"
         rx="22.155115"
         ry="22.971256" /><path
         style="display:inline;fill:#5e4c75;fill-opacity:1;stroke:none;stroke-width:0.25;stroke-dasharray:none;stroke-opacity:1"
         d="m 178.5,544.10823 c -12.81385,-1.20104 -25.48061,-5.67957 -36.125,-12.77257 -5.11181,-3.40631 -7.27533,-5.20068 -12.13948,-10.06822 -12.21691,-12.22541 -19.17138,-26.60246 -21.77586,-45.01744 -0.37362,-2.64164 -0.45771,-4.79431 -0.44924,-11.5 0.009,-7.28772 0.0761,-8.67282 0.57391,-11.875 1.79371,-11.53919 5.09657,-20.94284 10.80245,-30.75587 6.46527,-11.11903 9.95622,-14.57762 16.36334,-16.21168 4.01444,-1.02383 7.55322,-1.31678 18.26942,-1.51239 5.64825,-0.1031 10.37325,-0.25076 10.5,-0.32813 0.12675,-0.0774 1.49238,-0.27346 3.03472,-0.43574 5.95928,-0.62703 8.66106,0.94019 12.30166,7.13583 3.3071,5.62807 4.72061,7.31143 7.19895,8.57327 1.76699,0.89966 3.74808,1.28471 6.60985,1.28471 2.30583,0 7.44745,-0.49111 9.10651,-0.86983 0.50726,-0.11579 0.51836,-0.0505 0.41418,2.43792 -0.19848,4.74089 1.03868,8.34298 3.79755,11.05691 2.67606,2.63246 6.40862,4.11243 11.71056,4.64327 6.15931,0.61667 15.241,-0.90012 21.66457,-3.61834 1.15946,-0.49064 2.14369,-0.85648 2.1872,-0.81298 0.0435,0.0435 -0.1107,1.25111 -0.34266,2.68357 -0.30795,1.90169 -0.42347,4.18979 -0.4281,8.47948 -0.007,6.45092 0.26464,8.37762 1.7836,12.65252 2.33979,6.58501 7.24673,11.39261 13.97937,13.69638 l 1.5375,0.5261 -0.96739,4.75 c -3.53081,17.33671 -7.82442,28.27207 -14.92012,38 -11.86566,16.26733 -28.61779,26.53506 -47.93749,29.38189 -4.06405,0.59885 -12.79412,0.84712 -16.75,0.47634 z m 0.5,-42.98888 c 10.30301,-0.65394 18.46811,-2.65491 26,-6.37168 4.43976,-2.19089 7.18647,-4.18231 10.28257,-7.45505 2.09921,-2.21896 3.29671,-3.80106 9.40146,-12.42086 1.41328,-1.99554 3.51168,-4.74232 4.6631,-6.10396 2.51052,-2.96888 3.3928,-4.70007 3.21215,-6.30281 -0.16942,-1.50308 -0.7448,-2.08999 -2.04894,-2.08999 -2.35068,0 -5.73908,2.64243 -9.01517,7.03044 -1.8408,2.46558 -3.94814,5.95192 -4.90448,8.11389 -0.52205,1.18017 -0.54595,1.19838 -0.78648,0.59892 -0.13644,-0.34004 -0.25264,-1.3495 -0.25821,-2.24325 -0.0186,-2.9756 1.45183,-5.0026 6.7105,-9.25081 6.39406,-5.16543 8.75135,-8.87204 6.681,-10.50523 -0.57612,-0.45447 -0.93051,-0.52572 -2.1875,-0.43978 -3.30379,0.22587 -6.73846,2.56981 -16.37448,11.17453 -5.71613,5.10435 -7.8056,6.5387 -13.87552,9.52509 -9.54418,4.69571 -18.55405,6.98161 -31.5,7.99188 -4.33134,0.338 -12.98838,0.35597 -18.31042,0.038 -4.41551,-0.26381 -8.7532,-0.069 -10.65901,0.47882 -1.17986,0.33912 -2.15606,1.26296 -2.15418,2.03864 0.003,1.14539 0.5499,2.50419 1.37686,3.41953 1.09878,1.21622 2.63956,2.03646 6.68892,3.56088 1.91811,0.72209 4.09557,1.7566 5.18283,2.46237 6.84836,4.44543 15.08045,6.58973 26.75,6.96785 0.61875,0.0201 2.925,-0.0778 5.125,-0.21742 z m 3.72692,-24.86056 c 2.97954,-0.63347 4.57003,-1.31742 5.79663,-2.49271 1.23671,-1.18497 1.36445,-1.80685 0.53183,-2.58905 -1.44592,-1.35837 -4.10177,-1.69768 -9.18265,-1.17316 -6.45767,0.66664 -8.7951,1.33893 -10.1169,2.90979 -1.44333,1.7153 -0.20532,3.11343 3.36917,3.80491 1.30791,0.25301 7.68569,-0.0524 9.60192,-0.45978 z"
         id="path994" /><path
         style="fill:#2e3037;fill-opacity:1;stroke:none;stroke-width:0.176777;stroke-dasharray:none;stroke-opacity:1"
         d="m 192.13745,252.24543 c 1.00703,-31.56212 9.62413,-60.63211 24.72895,-83.42369 6.94207,-10.47485 15.63573,-19.64768 26.90866,-28.39181 25.3658,-19.6756 61.5902,-34.09589 102.97243,-40.991472 15.76575,-2.627073 26.32201,-3.496033 40.12831,-3.303241 7.53931,0.105279 9.71785,0.219832 15.82151,0.831927 31.25771,3.134636 55.8523,14.345406 70.58665,32.174996 6.27382,7.59177 10.71156,16.07568 13.70903,26.20844 l 0.61685,2.08518 -1.53246,-0.1037 c -7.37021,-0.49876 -10.81463,-1.28476 -23.32282,-5.32211 -9.42352,-3.04168 -12.95153,-3.96726 -18.24956,-4.7878 -3.17624,-0.49192 -9.84542,-0.44587 -13.34664,0.0922 -5.50232,0.84555 -9.15981,1.81753 -11.77062,3.12806 -3.87171,1.94345 -5.87348,3.99556 -8.93796,9.16269 -0.93053,1.569 -1.9799,3.25047 -2.33195,3.73661 -1.58291,2.18584 -3.50302,3.79494 -5.49369,4.60381 -1.17288,0.47659 -8.37771,2.59073 -27.68077,8.12249 -23.43863,6.7169 -33.26104,9.63445 -45.25483,13.44201 -22.65813,7.19309 -40.08099,13.75198 -57.27565,21.5616 -23.55131,10.69673 -43.28575,20.69533 -59.57375,30.18347 -4.8888,2.84784 -6.97639,4.27421 -10.42982,7.1263 -5.49741,4.54014 -9.04672,7.22069 -10.09205,7.62182 -0.28331,0.10872 -0.29524,-0.14044 -0.17982,-3.75774 z"
         id="path997" /><path
         style="fill:#ecdb87;fill-opacity:1;stroke:none;stroke-width:0.176777;stroke-dasharray:none;stroke-opacity:1"
         d="m 504.21224,224.62603 c -3.28092,-0.94084 -5.96572,-1.75348 -5.96622,-1.80586 -8.2e-4,-0.0859 11.02098,-0.89899 11.97572,-0.88349 0.39092,0.006 0.39774,0.0444 0.39774,2.21617 0,1.65683 -0.0553,2.20647 -0.22097,2.19675 -0.12153,-0.007 -2.90536,-0.78274 -6.18627,-1.72357 z"
         id="path998" /><path
         style="fill:#ecdb87;fill-opacity:1;stroke:none;stroke-width:0.176777;stroke-dasharray:none;stroke-opacity:1"
         d="m 531.89843,238.56068 c -3.51594,-0.70428 -8.02097,-2.53194 -10.97863,-4.45396 -5.47016,-3.55476 -5.97886,-5.72543 -4.15551,-17.73205 l 0.64429,-4.24264 0.0663,-9.72271 c 0.13573,-19.89766 -0.80424,-29.85298 -3.878,-41.0724 -0.39049,-1.4253 -0.72296,-2.65416 -0.73884,-2.73081 -0.0159,-0.0766 0.76663,-0.40318 1.7389,-0.72562 0.97227,-0.32245 3.5974,-1.26656 5.83363,-2.09803 9.04799,-3.36418 12.64652,-4.26452 16.97056,-4.24596 3.63132,0.0156 6.29652,0.89309 8.31461,2.7375 3.76005,3.43648 6.64072,11.63023 7.97338,22.67947 0.44379,3.67956 0.44707,13.2803 0.006,17.23573 -0.96294,8.63322 -2.53902,16.18778 -5.6631,27.14484 -2.47092,8.66625 -4.28089,12.51255 -7.35486,15.6295 -1.04,1.05455 -1.35548,1.2636 -2.3883,1.58261 -1.50985,0.46634 -4.10529,0.47224 -6.39033,0.0145 z"
         id="path999" /><path
         style="fill:#ecdb87;fill-opacity:1;stroke:none;stroke-width:0.176777;stroke-dasharray:none;stroke-opacity:1"
         d="m 505.40457,216.28773 c -8.51507,-0.83973 -12.19889,-1.09501 -17.85445,-1.23727 -3.0713,-0.0772 -5.75471,-0.22348 -6.10489,-0.33268 -2.45931,-0.7669 -3.52548,-2.75249 -3.52841,-6.57114 -9.5e-4,-1.234 1.02844,-12.28412 2.30477,-24.74082 0.29388,-2.8682 0.64743,-7.09347 0.78567,-9.38949 0.27733,-4.60613 0.54214,-6.02013 1.39459,-7.44666 0.71683,-1.19959 1.92957,-1.93715 3.97435,-2.4171 4.57758,-1.07445 12.82673,-0.88202 17.95493,0.41886 4.93628,1.25219 6.05434,2.79368 6.48056,8.9349 0.10459,1.50702 0.3424,4.29125 0.52846,6.18718 0.77014,7.84775 0.78457,8.9494 0.40106,30.62656 l -0.11494,6.49655 -0.63598,-0.0204 c -0.34978,-0.0112 -2.86336,-0.24004 -5.58572,-0.50851 z"
         id="path1000" /><path
         style="fill:#ecdb87;fill-opacity:1;stroke:none;stroke-width:0.176777;stroke-dasharray:none;stroke-opacity:1"
         d="m 412.81503,239.61711 c -3.08533,-0.78188 -5.31432,-3.6047 -6.49661,-8.2274 -0.99144,-3.87652 -1.22721,-8.53994 -1.03617,-20.49511 0.13093,-8.19406 0.38299,-12.89612 0.95497,-17.81503 2.56053,-22.01999 9.80056,-34.88844 21.90837,-38.93996 3.50687,-1.17348 5.42565,-1.39696 12.02838,-1.40099 3.80471,-0.002 6.4792,0.0778 7.68979,0.23022 13.34344,1.68052 22.23393,6.30247 25.73317,13.37803 2.21853,4.48593 2.35767,9.37459 0.6088,21.38998 -0.28304,1.94454 -0.6034,4.17193 -0.71192,4.94975 -0.10852,0.77781 -0.2685,3.9598 -0.35552,7.07107 -0.20134,7.19832 -0.53265,9.44894 -1.70919,11.61063 -1.15244,2.11741 -3.74943,3.63425 -9.77676,5.71038 -4.93742,1.70071 -7.18867,2.92532 -17.76606,9.66421 -11.75271,7.48769 -17.10671,10.25606 -23.15775,11.97407 -3.0757,0.87326 -6.48798,1.2614 -7.9135,0.90015 z"
         id="path1001" /><path
         style="fill:#ecdb87;fill-opacity:1;stroke:none;stroke-width:0.176777;stroke-dasharray:none;stroke-opacity:1"
         d="m 189.17166,315.42874 c -0.0978,-0.33863 -1.9989,-13.44479 -2.31634,-15.96902 -0.53312,-4.23939 -0.79606,-8.21261 -0.79551,-12.02081 0.001,-7.32957 0.65579,-10.53109 3.19823,-15.63872 2.71785,-5.46002 5.72197,-9.48939 10.62033,-14.24483 6.48993,-6.30059 14.65453,-11.69159 27.54485,-18.18756 5.89185,-2.96915 27.28969,-13.50555 33.05724,-16.27754 57.77932,-27.76982 100.87679,-42.63281 141.45443,-48.78326 1.62244,-0.24592 2.98153,-0.44712 3.02023,-0.44712 0.0387,0 -1.2217,7.75036 -2.80088,17.22302 l -2.87125,17.22302 -0.46326,8.80735 c -0.2548,4.84404 -0.48095,8.99693 -0.50256,9.22864 -0.037,0.39665 -0.48373,0.55495 -7.64067,2.70733 -4.18077,1.25732 -17.78374,5.09692 -30.22882,8.53243 l -22.62742,6.2464 -40.30508,15.32183 c -22.1678,8.42701 -40.62329,15.46238 -41.0122,15.63416 -0.3889,0.17179 -10.88944,6.10437 -23.33452,13.18353 l -22.62742,12.87119 -9.8111,6.80582 c -5.39611,3.7432 -10.18889,7.07902 -10.65062,7.41293 -0.59085,0.42728 -0.8597,0.53723 -0.90766,0.37121 z"
         id="path1002" /><path
         style="fill:#ecdb87;fill-opacity:1;stroke:none;stroke-width:0.176777;stroke-dasharray:none;stroke-opacity:1"
         d="m 321.02648,539.31805 c -4.72801,-0.56216 -7.8482,-1.51442 -12.12226,-3.69964 -5.93567,-3.03477 -10.08895,-7.08236 -11.88641,-11.58394 -0.74783,-1.87286 -1.01758,-3.11987 -1.12374,-5.19487 -0.21479,-4.19801 0.92628,-7.80411 4.29145,-13.56227 4.14595,-7.09416 6.1029,-8.6799 9.67862,-7.8427 2.14507,0.50224 4.62211,1.91144 6.68911,3.80547 3.66912,3.36208 4.15355,6.68683 2.51618,17.26918 -0.71652,4.63093 -0.93981,8.16392 -0.61902,9.79445 0.4627,2.35188 1.62085,5.09492 3.97315,9.41027 0.44695,0.81993 0.81263,1.54237 0.81263,1.60543 0,0.11574 -1.23116,0.11497 -2.20971,-10e-4 z"
         id="path1003" /><path
         style="fill:#ecdb87;fill-opacity:1;stroke:none;stroke-width:0.176777;stroke-dasharray:none;stroke-opacity:1"
         d="m 331.80986,486.5021 c -1.47798,-0.29264 -2.30132,-0.58157 -3.77043,-1.32318 -1.1554,-0.58324 -3.43049,-2.60444 -3.96829,-3.52545 l -0.3141,-0.5379 0.57926,-0.0877 c 0.3186,-0.0482 4.95449,-0.25169 10.30198,-0.45216 5.3475,-0.20047 10.18745,-0.40845 10.75545,-0.46218 l 1.03274,-0.0977 -0.32394,0.54838 c -1.43183,2.42389 -4.83288,4.79504 -8.10549,5.65099 -1.83671,0.4804 -4.56974,0.6071 -6.18718,0.28685 z"
         id="path1004" /><path
         style="fill:#ecdb87;fill-opacity:1;stroke:none;stroke-width:0.176777;stroke-dasharray:none;stroke-opacity:1"
         d="m 440.60156,493.19286 c -2.56863,-2.10422 -4.86473,-3.97988 -5.10246,-4.16814 l -0.43222,-0.34228 4.32131,-4.34109 c 4.20108,-4.2203 4.47372,-4.45582 9.79894,-8.46463 3.01269,-2.26795 5.49898,-4.1022 5.52507,-4.0761 0.0712,0.0712 -9.14788,24.92006 -9.30486,25.07999 -0.0746,0.076 -2.23716,-1.58353 -4.80578,-3.68775 z"
         id="path1005" /><path
         style="fill:#ecdb87;fill-opacity:1;stroke:none;stroke-width:0.176777;stroke-dasharray:none;stroke-opacity:1"
         d="m 550.46872,487.00951 c 1.27109,-3.15424 2.5624,-8.52123 2.94647,-12.24627 0.26588,-2.57872 0.11252,-9.03294 -0.27372,-11.51991 -1.00917,-6.49785 -3.50826,-13.53103 -7.11513,-20.02413 -3.21226,-5.78272 -3.99516,-6.61951 -9.83075,-10.5075 -5.38263,-3.58621 -7.03739,-5.27831 -8.00189,-8.18247 -0.3638,-1.09542 -0.45347,-4.28675 -0.12956,-4.61067 0.20597,-0.20597 10.27373,2.58231 14.10998,3.90776 4.45261,1.53842 7.90836,3.25362 10.60735,5.26477 1.84715,1.37641 4.99213,4.64736 6.49669,6.75692 1.54049,2.15992 3.60059,6.25682 4.43428,8.81837 4.05682,12.46486 1.27576,26.74713 -7.18737,36.91112 -2.04384,2.45459 -6.44853,6.40522 -6.05635,5.43201 z"
         id="path1006" /><path
         style="fill:#2e3037;fill-opacity:1;stroke:none;stroke-width:0.176777;stroke-dasharray:none;stroke-opacity:1"
         d="m 373.1756,548.14996 c -1.69326,-0.15211 -5.05861,-0.64541 -8.75044,-1.28266 -2.18762,-0.37761 -4.90036,-0.81265 -6.02833,-0.96678 -2.22001,-0.30333 -3.66937,-0.73091 -4.87747,-1.4389 -2.36569,-1.38638 -2.82827,-5.02992 -1.63703,-12.8941 0.48991,-3.23421 0.5909,-4.41001 0.59976,-6.98268 0.0114,-3.31953 -0.1492,-4.23271 -1.06091,-6.03189 -0.69249,-1.36656 -2.24029,-2.89157 -3.65117,-3.59741 -1.11363,-0.55712 -1.39708,-0.62375 -2.65369,-0.62375 -2.75909,0 -6.00759,0.89527 -14.10196,3.8864 -2.57652,0.95211 -4.86357,1.7851 -5.08233,1.85108 l -0.39775,0.11998 v -6.65995 c 0,-6.17273 0.0218,-6.65159 0.29792,-6.54563 0.4701,0.18039 8.66104,0.13044 10.13921,-0.0618 2.56306,-0.3334 3.98063,-0.77441 4.71906,-1.46813 0.85483,-0.80307 0.22687,-2.59936 -1.15265,-3.29721 -1.16785,-0.59076 -2.52552,-0.76456 -6.57892,-0.8422 -2.18761,-0.0419 -4.31556,-0.11808 -4.72877,-0.1693 l -0.7513,-0.0931 0.002,-0.91725 0.002,-0.91724 3.6874,-2.42797 c 9.76113,-6.42719 16.57207,-9.75242 23.08711,-11.27152 3.24275,-0.75611 7.45197,-1.07063 10.31852,-0.77102 1.02719,0.10736 1.08611,0.13877 1.07779,0.57452 -0.006,0.33558 -0.2492,0.65329 -0.89266,1.16806 -0.48613,0.38891 -1.4811,1.38328 -2.21105,2.20971 -6.97928,7.90173 -9.25122,19.68788 -5.98413,31.04395 2.14695,7.46258 7.04846,14.18712 12.80895,17.57299 2.45281,1.44171 5.44219,2.53821 12.99309,4.76589 2.91682,0.86052 5.76071,1.73618 6.31977,1.94591 l 1.01646,0.38132 v 0.87556 c 0,1.03605 0.15331,0.94946 -3.26552,1.84429 -3.20133,0.8379 -5.86527,1.1498 -9.51565,1.11412 -1.67219,-0.0163 -3.35854,-0.0583 -3.74745,-0.0932 z"
         id="path1007" /><path
         style="fill:#2e3037;fill-opacity:1;stroke:none;stroke-width:0.176777;stroke-dasharray:none;stroke-opacity:1"
         d="m 499.74388,525.17972 c 1.41521,-2.45612 2.38719,-3.75061 5.75603,-7.66595 3.88613,-4.51654 5.18928,-6.4396 7.3434,-10.83658 4.46485,-9.11369 4.87581,-18.34981 1.23549,-27.76686 -1.70971,-4.42278 -5.71438,-11.50516 -8.36122,-14.78708 -3.37796,-4.18844 -7.0614,-5.37101 -18.69779,-6.00295 -4.6615,-0.25315 -6.89718,-0.48776 -9.40486,-0.98694 -2.01141,-0.40039 -4.11855,-1.04307 -4.11855,-1.25617 0,-0.30321 1.55525,-2.98561 2.32163,-4.00421 4.32899,-5.75366 11.86832,-9.70177 21.98516,-11.51293 5.93965,-1.06335 10.95113,-1.32983 23.5113,-1.25023 7.19353,0.0456 9.2657,0.1109 10.25305,0.32318 3.52869,0.75866 5.61892,2.32296 7.15719,5.35638 0.64721,1.27629 0.67418,1.55233 0.13485,1.38047 -0.72786,-0.23194 -3.72395,-0.126 -4.85028,0.1715 -0.60157,0.1589 -2.03346,0.69282 -3.18198,1.1865 -2.77151,1.1913 -3.39092,1.41724 -6.50762,2.37374 -3.75569,1.1526 -5.7131,2.135 -7.17257,3.59983 -1.33625,1.34116 -2.1023,2.75406 -2.63751,4.86463 -1.34542,5.30562 1.43939,11.36461 7.46376,16.23911 2.15443,1.74322 3.49001,2.59214 6.05863,3.85102 3.63819,1.78308 6.85701,2.64159 9.90404,2.64159 h 1.46083 l 0.13113,2.78424 c 0.15975,3.39188 0.0109,6.66399 -0.36786,8.08753 -0.88804,3.33747 -3.9978,7.37206 -8.34051,10.82095 -0.95337,0.75716 -2.9252,2.2291 -4.38184,3.27099 -6.38496,4.56698 -8.86334,7.08652 -10.83055,11.01041 -0.84126,1.67801 -1.57431,3.9277 -1.85746,5.70044 -0.19645,1.22997 -0.22595,1.28469 -0.73937,1.37157 -0.29412,0.0498 -3.27922,0.44983 -6.63356,0.88902 -3.35434,0.4392 -6.33048,0.84541 -6.61366,0.90269 l -0.51486,0.10416 z"
         id="path1008" /><path
         style="fill:#5e4c75;fill-opacity:1;stroke:none;stroke-width:0.176777;stroke-dasharray:none;stroke-opacity:1"
         d="m 343.77069,541.9853 c -6.22722,-1.67545 -13.0295,-7.09272 -14.28606,-11.37728 -0.85668,-2.92108 1.02769,-6.37673 3.47723,-6.37673 0.28064,0 1.51233,0.3182 2.73708,0.70711 2.5274,0.80255 3.63629,0.88835 4.66939,0.3613 1.19131,-0.60776 1.96247,-1.78518 2.92858,-4.47136 l 0.49273,-1.37002 h 0.86021 0.8602 v 11.40209 11.4021 l -0.39775,-0.0116 c -0.21876,-0.006 -0.82248,-0.12591 -1.34161,-0.26558 z"
         id="path1009" /><path
         style="fill:#5e4c75;fill-opacity:1;stroke:none;stroke-width:0.176777;stroke-dasharray:none;stroke-opacity:1"
         d="m 534.13078,474.57486 c -5.58694,-2.08725 -11.277,-6.29409 -13.13798,-9.71331 -1.44338,-2.65198 -1.16046,-5.40135 0.7736,-7.51751 1.55709,-1.70371 2.6397,-1.65747 5.56522,0.2377 2.32262,1.5046 3.11362,1.8319 4.17969,1.72946 1.54978,-0.14891 1.96566,-0.83269 2.26329,-3.72126 0.0981,-0.95225 0.29419,-1.9553 0.43573,-2.229 0.36563,-0.70707 1.12909,-0.97144 2.44763,-0.84757 4.15851,0.39066 5.57028,3.76735 4.10074,9.80818 -0.42977,1.76664 -1.37646,4.62043 -2.15301,6.49024 -0.70127,1.68856 -2.93032,6.27643 -3.04486,6.26698 -0.0573,-0.005 -0.70084,-0.23149 -1.43005,-0.50391 z"
         id="path1010" /><path
         style="fill:#ff69ee;fill-opacity:1;stroke:none;stroke-width:0.176777;stroke-dasharray:none;stroke-opacity:1"
         d="m 445.74244,557.58711 c -3.66512,-5.36855 -8.64122,-11.66403 -16.79388,-21.24662 -7.54586,-8.86937 -11.48663,-13.67046 -13.30055,-16.20422 -1.12766,-1.57516 -2.59564,-4.36037 -3.11911,-5.9179 -1.30608,-3.88614 -0.57019,-7.37983 1.832,-8.69763 0.87086,-0.47774 3.36327,-0.36679 5.21859,0.23231 2.18008,0.70397 3.12123,1.12185 8.15095,3.61907 2.48987,1.2362 5.09891,2.43151 5.79787,2.65626 1.80146,0.57925 3.15652,0.44804 6.28804,-0.60883 1.61481,-0.545 3.09928,-0.91241 4.4022,-1.08957 1.08121,-0.14702 3.18732,-0.46522 4.68026,-0.70712 8.14141,-1.31916 10.71408,-3.12412 16.72105,-11.7313 2.57858,-3.69476 4.5058,-5.3033 6.35396,-5.3033 0.68777,0 0.9247,0.0996 1.52346,0.64056 2.21542,2.0015 1.35348,6.47444 -2.7651,14.3491 -0.72688,1.3898 -3.51363,6.99804 -6.19277,12.46276 -10.98976,22.41612 -13.364,27.39594 -16.43639,34.47418 -0.93649,2.1575 -1.71151,3.93528 -1.72228,3.95062 -0.0108,0.0154 -0.29801,-0.37992 -0.6383,-0.87837 z"
         id="path1011" /><path
         style="fill:#666666;fill-opacity:1;stroke:none;stroke-width:0.176777;stroke-dasharray:none;stroke-opacity:1"
         d="m 544.99087,480.1783 c -0.4775,-3.77739 -0.44978,-8.19536 0.0632,-10.07576 0.64026,-2.34685 2.67039,-6.24093 3.05376,-5.85755 0.4012,0.4012 0.72947,3.85677 0.63536,6.68812 -0.10963,3.29805 -0.56631,5.766 -1.7506,9.46035 -0.69899,2.18051 -0.8023,2.38819 -1.212,2.43649 l -0.44788,0.0528 z"
         id="path1012" /><path
         style="fill:#f4e9d9;fill-opacity:1;stroke:none;stroke-width:0.176777;stroke-dasharray:none;stroke-opacity:1"
         d="m 439.37847,569.73525 c -1.1412,-0.65089 -1.24353,-0.76018 -3.54359,-3.78466 -5.24229,-6.89339 -11.49786,-12.34883 -18.81866,-16.41161 -7.87098,-4.36812 -30.28806,-13.25237 -39.33281,-15.58824 -2.18761,-0.56497 -4.49455,-1.24733 -5.12653,-1.51638 -2.74577,-1.16891 -4.76343,-2.94541 -6.714,-5.9115 -1.80553,-2.74555 -2.84174,-5.08255 -3.72023,-8.39037 -0.83699,-3.15158 -1.10275,-5.17345 -1.11531,-8.48528 -0.0434,-11.4488 5.38069,-19.80825 14.35696,-22.1264 3.3159,-0.85634 6.02638,-0.78098 13.62608,0.37884 2.19131,0.33442 6.09227,0.77364 8.66879,0.97604 5.9967,0.47106 11.92322,1.12665 15.29119,1.69149 10.6858,1.7921 18.38265,4.70823 26.20055,9.92667 1.09018,0.72769 2.06928,1.42806 2.17576,1.55637 0.10649,0.12831 0.16912,0.6167 0.13918,1.08532 -0.0475,0.74274 -0.12058,0.88359 -0.57007,1.09817 -1.58302,0.7557 -4.41351,0.94676 -6.92032,0.46713 -1.54141,-0.29492 -4.79519,-1.38984 -9.623,-3.23819 -4.75715,-1.8213 -6.06888,-2.17425 -8.49416,-2.28556 -1.61247,-0.074 -2.26297,-0.0301 -3.09359,0.20863 -2.71046,0.77916 -4.86834,3.19294 -6.09192,6.81435 -0.49612,1.46835 -0.68231,5.0982 -0.35706,6.96105 1.0428,5.97261 5.22515,12.93631 13.00989,21.66172 1.25043,1.40152 5.42131,5.73697 9.26862,9.63433 6.85473,6.9439 9.09065,9.37257 11.24341,12.21264 3.45382,4.55654 4.85683,8.22276 4.1059,10.72914 -0.25906,0.86466 -1.44322,2.23325 -2.20923,2.55331 -0.84095,0.35137 -1.45916,0.29442 -2.35585,-0.21701 z"
         id="path1014" /><path
         style="fill:#f4e9d9;fill-opacity:1;stroke:none;stroke-width:0.176777;stroke-dasharray:none;stroke-opacity:1"
         d="m 451.04924,569.44193 c -2.90786,-1.48564 -1.64102,-6.62877 3.95152,-16.04249 3.79595,-6.38957 9.98715,-18.42566 13.77614,-26.78167 3.74206,-8.2525 8.98224,-21.00581 10.60008,-25.79796 0.68325,-2.02384 0.72389,-2.26366 0.79591,-4.69602 0.0841,-2.84137 -0.13488,-4.22239 -0.93927,-5.92272 -0.56022,-1.18423 -1.78567,-2.56552 -2.80714,-3.16414 -2.26789,-1.32908 -5.87695,-1.3057 -8.54458,0.0554 -2.33662,1.19216 -4.12905,3.11908 -7.33228,7.88247 -3.67137,5.45952 -5.60356,7.50793 -8.33128,8.83239 -1.85849,0.9024 -2.76359,1.14709 -2.76359,0.74712 0,-0.55635 0.57613,-3.32321 1.14808,-5.51365 1.13103,-4.33159 2.63543,-8.36438 6.49561,-17.41251 2.12472,-4.98028 2.7871,-6.60623 5.18043,-12.71656 0.47359,-1.20909 1.24596,-2.83985 1.71638,-3.62392 1.97089,-3.28492 3.96798,-4.44793 6.86584,-3.99831 1.61517,0.2506 2.77871,0.64639 6.25921,2.12911 4.16481,1.77424 4.98796,1.97175 11.04854,2.65106 8.20013,0.91913 11.74904,1.97626 14.67247,4.37057 4.18197,3.42508 7.05728,10.1956 7.79181,18.34751 0.86266,9.57383 -2.34372,17.9496 -10.48929,27.40039 -2.27745,2.64238 -6.22669,6.56842 -11.62143,11.55318 -8.55712,7.9068 -11.54387,11.03043 -19.63208,20.53179 -6.19813,7.28105 -9.43686,11.77794 -12.0918,16.78911 -1.533,2.89353 -2.29771,3.92403 -3.28615,4.42829 -0.88835,0.45321 -1.50506,0.44109 -2.46313,-0.0484 z"
         id="path1015" /><path
         style="fill:#f4e9d9;fill-opacity:1;stroke:none;stroke-width:0.176777;stroke-dasharray:none;stroke-opacity:1"
         d="m 375.4737,315.84181 c -4.07832,-1.23208 -6.9706,-4.55932 -8.83999,-10.1694 -1.92,-5.76193 -2.35221,-13.73234 -1.14527,-21.12009 0.68106,-4.1688 1.87704,-7.8479 2.58436,-7.95004 0.36458,-0.0527 0.3699,0.005 0.47369,5.12653 0.0577,2.84887 0.19172,5.81616 0.29776,6.59398 0.6362,4.66703 2.0728,7.6924 4.05106,8.5312 1.43255,0.60742 3.83295,0.14938 5.15713,-0.98407 0.59321,-0.50776 0.69163,-0.69397 0.69163,-1.30859 0,-0.60755 -0.11432,-0.83072 -0.7513,-1.4666 -0.44929,-0.4485 -1.11397,-0.87851 -1.65347,-1.06969 l -0.90216,-0.31968 0.0734,-1.16096 c 0.0404,-0.63852 0.25696,-4.68388 0.48131,-8.98968 0.22435,-4.3058 0.4382,-7.85318 0.47521,-7.88308 0.037,-0.0299 5.07892,-1.51067 11.20423,-3.29061 6.12531,-1.77994 11.23481,-3.27197 11.35443,-3.31562 0.2976,-0.10861 -0.26041,1.47995 -1.18374,3.36989 -1.00319,2.05338 -2.65264,4.53573 -5.83638,8.78349 -5.13505,6.85122 -7.51996,11.02525 -7.889,13.80724 -0.27688,2.0872 1.36243,3.93642 3.08394,3.47882 1.15525,-0.30708 2.0308,-1.50737 3.91797,-5.37117 4.06107,-8.31462 7.37282,-13.43341 11.29109,-17.45204 2.57705,-2.64304 4.20265,-3.71046 6.71282,-4.40784 1.23185,-0.34223 1.81234,-0.37683 6.47959,-0.38618 17.16287,-0.0344 23.63329,0.54841 29.96845,2.69927 1.66248,0.56443 4.23784,1.76644 4.23784,1.97795 0,0.0741 -1.8893,0.98752 -4.19845,2.0298 -14.8743,6.7138 -19.00977,8.83097 -24.74952,12.67063 -3.497,2.33935 -6.52043,4.83941 -9.68065,8.00486 -4.01334,4.02 -5.72655,6.42681 -6.55619,9.21056 -0.41507,1.39268 -0.41645,3.88493 -0.003,5.27211 0.17052,0.57202 0.24507,1.09913 0.16567,1.17137 -0.0794,0.0722 -0.66756,0.30218 -1.30702,0.51099 l -1.16264,0.37966 -0.99875,-0.45724 c -1.46874,-0.67241 -3.03882,-0.86883 -4.97304,-0.62212 -2.15277,0.27459 -3.70486,0.68501 -8.40832,2.22345 -5.77272,1.88817 -6.43959,2.04416 -9.104,2.12962 -1.86535,0.0598 -2.49783,0.0134 -3.35876,-0.24672 z"
         id="path1018" /><path
         style="fill:#f4e9d9;fill-opacity:1;stroke:none;stroke-width:0.25;stroke-dasharray:none;stroke-opacity:1"
         d="m 278.23622,405.01448 c -0.37036,-1.97419 0.0267,-5.63409 0.89153,-8.21832 1.52604,-4.55983 3.68016,-8.61591 10.91173,-20.54616 1.91697,-3.1625 4.22984,-7.26875 5.13973,-9.125 0.97248,-1.98393 2.38471,-4.3539 3.42636,-5.75 2.32053,-3.11016 3.01943,-4.51714 3.01943,-6.0785 0,-1.10075 -0.10466,-1.33498 -0.99374,-2.22407 l -0.99374,-0.99374 -0.3842,-6.28934 c -0.21131,-3.45915 -0.44722,-6.87998 -0.52425,-7.60185 -0.13881,-1.30085 -0.14766,-1.3125 -0.99706,-1.3125 -0.47136,0 -0.85701,-0.0986 -0.85701,-0.21918 0,-0.12055 0.51347,-1.71826 1.14105,-3.55046 5.97634,-17.44782 16.51753,-31.122 28.85895,-37.43622 2.98657,-1.52801 5.69338,-2.68409 5.87029,-2.50719 0.0563,0.0563 -0.23337,1.33661 -0.64365,2.84519 -0.41027,1.50857 -1.74375,6.79292 -2.96329,11.743 -3.43039,13.92392 -5.56961,21.14638 -8.21924,27.74986 -1.77528,4.42438 -2.27211,5.371 -4.3755,8.33657 -6.04977,8.52959 -6.85238,11.4668 -2.93674,10.74723 3.58002,-0.6579 6.81913,-3.60158 9.11166,-8.28061 1.72263,-3.51588 2.27471,-5.19763 4.40811,-13.42819 2.62417,-10.12389 2.56615,-9.99998 6.0858,-12.99695 1.14468,-0.97469 2.32453,-2.20505 2.62189,-2.73415 1.15095,-2.04782 0.39063,-3.5051 -2.09831,-4.0218 l -1.34419,-0.27906 0.36991,-0.92152 c 0.20346,-0.50684 2.53723,-6.04027 5.18618,-12.29652 l 4.81626,-11.375 0.83805,-0.0808 c 0.76366,-0.0736 0.82628,-0.0292 0.70552,0.5 -0.0729,0.31942 -0.54472,2.32452 -1.04851,4.45577 -1.08449,4.58791 -2.18357,10.92255 -2.79773,16.125 -0.68767,5.82522 -0.62859,18.81345 0.11109,24.4189 1.04044,7.88468 1.82397,11.30958 4.30806,18.8311 2.66593,8.07213 3.26952,11.24997 2.75405,14.5 -0.43674,2.75361 -1.69056,5.1123 -3.88306,7.3048 l -1.86923,1.86923 -1.15708,-1.01851 c -0.63867,-0.56218 -1.53641,-1.08967 -2.00372,-1.17734 -1.96385,-0.36842 -3.28459,0.25458 -12.22162,5.76501 -7.38311,4.55231 -11.47843,6.55582 -16.375,8.01098 -6.87492,2.04308 -8.9827,3.11845 -10.81308,5.51671 l -0.93808,1.22912 0.81308,0.34897 c 0.49319,0.21167 2.09974,0.39607 4.08343,0.46868 5.02716,0.18402 8.49387,-0.66855 14.5515,-3.57866 4.2341,-2.03408 6.74556,-3.51757 14.26216,-8.42449 3.34621,-2.18444 6.26542,-4.04131 6.48713,-4.12639 0.64607,-0.24792 -0.47535,1.17997 -2.65097,3.37544 -10.3286,10.42287 -29.37876,17.84965 -49.56546,19.32328 l -4.10471,0.29965 -1.919,1.8825 -1.919,1.8825 z m 3.13878,-2.74153 c 0,-0.0561 -0.675,-0.33 -1.5,-0.60861 l -1.5,-0.50655 v 0.6086 c 0,0.57719 0.0774,0.60861 1.5,0.60861 0.825,0 1.5,-0.0459 1.5,-0.10205 z"
         id="path1021" /><path
         style="fill:#f4e9d9;fill-opacity:1;stroke:none;stroke-width:0.25;stroke-dasharray:none;stroke-opacity:1"
         d="m 411.75,484.72522 c -0.55,-0.0534 -2.29375,-0.21601 -3.875,-0.36133 -1.58125,-0.14532 -6.3625,-0.70453 -10.625,-1.2427 -4.2625,-0.53817 -9.38125,-1.15303 -11.375,-1.36636 -29.03333,-3.1065 -47.92875,-7.79 -62.75,-15.5535 -16.36161,-8.57036 -24.73009,-18.16617 -34.33392,-39.36936 -1.63506,-3.60987 -6.16655,-14.26202 -6.16579,-14.49389 1.6e-4,-0.0485 1.09703,-0.0895 2.4375,-0.0913 2.81398,-0.004 3.05634,-0.10117 7.25756,-2.91934 1.41369,-0.9483 2.72771,-1.78456 2.92004,-1.85837 0.20447,-0.0785 0.73149,0.28842 1.26909,0.88348 2.24656,2.48667 4.84751,1.90251 11.00107,-2.47082 2.22874,-1.58396 4.78609,-3.07216 5.79119,-3.37008 0.53157,-0.15756 0.55442,-0.0927 0.625,1.77322 l 0.0733,1.93677 4.5,-4.00549 c 4.48259,-3.99 4.51789,-4.01482 9.125,-6.41535 l 4.625,-2.40987 10.95352,-9.36346 10.95352,-9.36347 1.92148,2.01193 c 2.31132,2.42011 4.24743,3.84085 7.06438,5.18391 3.36804,1.6058 4.77464,1.89195 9.2321,1.87809 4.27882,-0.0133 7.11783,-0.53082 9.48083,-1.72824 1.46784,-0.74381 2.01917,-1.44875 2.01917,-2.58177 0,-2.47523 -2.22137,-3.10518 -7.22545,-2.04902 -1.41405,0.29844 -3.31314,0.49608 -4.76691,0.49608 -7.91222,0 -13.05669,-4.23267 -18.38324,-15.125 -3.42856,-7.0111 -5.36007,-14.38555 -6.51525,-24.875 -0.49548,-4.49905 -0.7474,-19.63042 -0.48805,-29.31356 0.16001,-5.97417 0.23877,-6.93644 0.56775,-6.93644 0.32945,0 0.35998,0.38662 0.22207,2.8125 -0.38106,6.7032 -0.47633,16.8554 -0.18241,19.4375 0.57786,5.07646 1.51265,8.0849 3.41973,11.00579 2.56499,3.92855 7.00018,5.72694 12.32557,4.99779 2.05787,-0.28176 4.05905,-0.88467 11.13458,-3.3546 2.19087,-0.76479 4.02336,-1.35056 4.07221,-1.30172 0.0488,0.0489 0.29404,1.29354 0.54489,2.76599 l 0.45608,2.67717 -0.52828,-0.15122 c -1.35901,-0.38902 -4.37258,-0.70275 -5.21768,-0.5432 -1.83357,0.34619 -2.10478,2.00094 -0.69286,4.22731 2.60861,4.11334 10.10427,1.41184 11.89923,-4.28857 0.53998,-1.71487 0.38026,-4.02102 -0.38196,-5.5151 -0.72578,-1.42265 -2.62681,-3.44152 -3.80811,-4.04417 -2.83749,-1.44758 -4.96016,-1.18939 -11.45191,1.39297 -6.66768,2.65234 -8.54888,2.9002 -11.40525,1.50271 -1.64695,-0.80578 -2.63787,-1.9251 -3.35362,-3.78816 -0.4612,-1.20048 -0.57566,-2.07615 -0.64808,-4.95799 -0.0484,-1.925 -0.21967,-7.78833 -0.38067,-13.02961 -0.46733,-15.21358 0.26313,-22.08121 2.90912,-27.35101 0.81008,-1.61336 2.10018,-3.26215 3.12154,-3.98943 l 0.72965,-0.51956 -0.0222,8.81981 c -0.013,5.15289 0.0991,9.96314 0.26949,11.5698 1.32036,12.44651 5.12523,19.04189 12.41459,21.51953 1.61199,0.54791 2.58468,0.6988 5.11547,0.79357 4.89708,0.18337 8.56548,-0.60829 16.99245,-3.66703 2.26459,-0.82198 4.15454,-1.45741 4.19989,-1.41207 0.0453,0.0454 -0.43617,0.93666 -1.07002,1.9807 -1.42857,2.35304 -2.24626,4.33646 -2.60628,6.32182 -0.55587,3.06548 0.63416,3.70179 3.43066,1.83436 1.8815,-1.25642 3.7074,-3.20322 7.03658,-7.50254 1.43456,-1.85259 3.39633,-4.13972 4.35949,-5.08251 l 1.7512,-1.71416 0.44217,2.62608 c 3.02084,17.94093 14.49056,37.26461 29.27107,49.31463 l 0.93221,0.76 -0.86971,1.29145 c -0.47834,0.71029 -0.86971,1.40029 -0.86971,1.53332 0,0.4271 2.74654,0.65298 7.875,0.64765 5.1926,-0.005 6.86036,-0.19441 11.16064,-1.26484 14.22434,-3.54073 24.96131,-12.79553 27.44132,-23.65322 0.62715,-2.74571 0.826,-4.45174 0.51887,-4.45174 -0.13453,0 -1.95607,1.06875 -4.04786,2.375 -2.09179,1.30625 -3.9455,2.375 -4.11936,2.375 -0.20683,0 -0.27525,-0.23767 -0.19792,-0.6875 0.7225,-4.20258 1.17602,-6.37539 2.88468,-13.8206 1.0897,-4.7482 2.26528,-10.30957 2.6124,-12.35861 0.34712,-2.04903 0.66321,-3.7576 0.70242,-3.79682 0.0392,-0.0392 1.16222,0.65821 2.49556,1.54984 2.23594,1.49522 2.42425,1.68427 2.42425,2.43374 0,0.74548 0.0998,0.84802 1.20796,1.24162 4.00767,1.4234 7.16207,6.08635 12.05039,17.81333 4.12744,9.90165 5.13698,13.98335 5.41612,21.8981 0.42969,12.18368 -2.85547,25.07772 -10.91787,42.8519 -3.12014,6.87857 -11.45489,24.12151 -13.05105,27 -7.15167,12.89723 -17.84194,24.7415 -35.06041,38.84513 -2.50489,2.05174 -6.27255,5.37788 -8.37259,7.39141 -6.78937,6.50969 -9.58701,8.14346 -15.89755,9.28392 -2.15616,0.38967 -11.53366,0.69427 -14,0.45476 z m 15.375,-22.73201 c 5.83987,-1.74676 9.3986,-6.76884 10.62443,-14.99321 0.41767,-2.80227 0.49615,-11.23492 0.14075,-15.125 -0.95515,-10.45494 -0.93737,-9.15451 -0.18586,-13.59224 1.32913,-7.84865 0.78437,-9.65776 -2.90818,-9.65776 -6.07506,0 -16.95333,4.22359 -26.53986,10.30435 -8.97129,5.69052 -17.96313,14.32188 -19.52156,18.73896 -0.96977,2.74862 -0.2244,4.30132 4.44278,9.25488 1.96487,2.08544 4.41625,4.51374 5.4475,5.39622 5.58891,4.78267 13.43493,8.74564 19.63871,9.91938 2.4492,0.46338 6.90378,0.33992 8.86129,-0.24558 z m -32.80009,-63.21946 c 2.11736,-1.10166 3.59645,-4.96479 3.16781,-8.27375 -0.21673,-1.67307 -1.17038,-3.73417 -1.97027,-4.25828 -1.51856,-0.995 -4.12556,-0.12558 -5.17329,1.72525 -0.48075,0.84925 -0.60215,1.48681 -0.68239,3.58378 -0.20714,5.41307 1.88919,8.66369 4.65814,7.223 z"
         id="path1022" /><path
         style="display:inline;fill:#87ecc7;fill-opacity:1;stroke:none;stroke-width:0.148154;stroke-opacity:1"
         d="m 300.98952,357.01952 c -0.13497,-0.30589 -0.43718,-0.78267 -0.67162,-1.05949 -0.58794,-0.69429 -0.71796,-0.95146 -1.00066,-1.97933 -0.39505,-1.43641 -0.66909,-3.45191 -1.00181,-7.36808 -0.49402,-5.81489 -0.92471,-8.67859 -1.44881,-9.63347 -0.31912,-0.58142 -0.28814,-1.15982 0.14341,-2.67745 1.24717,-4.3859 5.01103,-12.30797 8.29203,-17.45286 4.66014,-7.3075 11.3515,-14.70455 17.07256,-18.87308 3.07205,-2.23839 9.16305,-5.72091 11.86114,-6.78159 l 0.5854,-0.23013 -0.10606,0.60896 c -0.63664,3.65456 -8.87249,32.22233 -11.28284,39.13681 -1.62079,4.64955 -4.74984,10.60095 -8.75519,16.65223 -2.95233,4.46036 -4.06283,6.4548 -4.51862,8.11543 -0.40245,0.9913 -3.56297,4.50913 -4.82923,4.50913 -3.27429,0.81797 -3.69953,0.22912 -4.3397,-2.96708 z"
         id="path80" /><path
         style="display:inline;fill:#87ecc7;fill-opacity:1;stroke:none;stroke-width:0.246502;stroke-opacity:1"
         d="m 339.63521,320.61861 c -0.68703,-0.43098 -1.5128,-1.21436 -1.83503,-1.74085 -1.04954,-1.71477 -1.93511,-2.6166 -4.2562,-4.33437 -1.25611,-0.92959 -2.23285,-1.80952 -2.17053,-1.9554 1.41427,-3.30998 12.65929,-27.51996 13.85531,-29.82981 l 0.67628,-1.30608 -0.14086,0.94988 c -0.0774,0.52242 -0.77146,4.58311 -1.54215,9.02372 -2.04893,11.80563 -2.49506,15.44212 -3.03321,24.72441 l -0.30448,5.25213 z"
         id="path82" /><path
         style="fill:#87ecc7;fill-opacity:1;stroke:none;stroke-width:0.176777;stroke-dasharray:none;stroke-opacity:1"
         d="m 523.14094,329.73273 c -0.10142,-2.21442 0.16825,-4.51327 1.00058,-8.52948 1.31343,-6.33764 1.26587,-8.62232 -0.27241,-13.08625 -1.79269,-5.20218 -4.86101,-9.74189 -9.91449,-14.66889 -4.79196,-4.67202 -10.12976,-8.53565 -18.8031,-13.61014 -3.58059,-2.09489 -16.75567,-9.3045 -19.67821,-10.76822 -5.40762,-2.70836 -10.28057,-4.7191 -20.27332,-8.36542 -0.98408,-0.35909 -1.58722,-0.45538 -2.94585,-0.47029 -1.57988,-0.0173 -1.74296,0.0136 -2.16751,0.41168 -1.06881,1.00211 -0.93288,2.53129 0.32836,3.69387 1.04596,0.96413 2.35094,1.59617 6.64115,3.21648 8.75715,3.30736 15.51671,6.32219 21.3777,9.53466 2.23104,1.22286 2.33863,1.30712 2.23529,1.75057 -0.0597,0.25623 -0.15662,1.10227 -0.21537,1.88009 -0.1897,2.51156 0.67603,4.77961 3.47505,9.104 4.33395,6.6958 6.08246,13.2263 6.47204,24.17243 l 0.12105,3.40117 -0.72044,-0.66113 c -0.39624,-0.36362 -1.56328,-1.1782 -2.59342,-1.81018 -1.71282,-1.05079 -1.866,-1.18846 -1.79138,-1.60996 0.0449,-0.2535 0.17237,-1.80784 0.2833,-3.4541 0.55712,-8.26779 -1.27139,-16.01977 -5.31748,-22.54341 -8.76991,-14.14 -28.63744,-22.72891 -55.94164,-24.18406 -1.84731,-0.0985 -4.09738,-0.17941 -5.00016,-0.17991 -1.92321,-10e-4 -1.91401,0.14376 -0.13158,-2.07112 2.83864,-3.52733 6.99612,-5.79308 11.76087,-6.40942 2.89385,-0.37434 6.31947,-0.17287 10.78338,0.63418 4.16767,0.7535 24.10321,5.77318 33.3077,8.38672 17.95705,5.09877 31.53586,10.77194 41.69247,17.41894 5.40564,3.53772 10.84388,8.25716 13.72981,11.91505 1.11403,1.41203 1.42359,2.27512 1.71192,4.77298 0.40194,3.48218 0.70588,4.14868 3.22462,7.07106 2.50836,2.91033 3.08773,4.6412 3.10654,9.28078 0.0106,2.61812 -0.0407,3.19875 -0.39802,4.50781 -1.36359,4.99495 -4.80363,9.10535 -9.34291,11.16355 -1.34025,0.6077 -4.2091,1.38759 -5.1043,1.38759 h -0.58154 z"
         id="path1023" /><path
         style="fill:#87ecc7;fill-opacity:1;stroke:none;stroke-width:0.176777;stroke-dasharray:none;stroke-opacity:1"
         d="m 622.25397,336.61463 c -0.48614,-0.23597 -1.11682,-0.67699 -1.40151,-0.98006 l -0.51762,-0.55103 1.2354,-1.28329 c 2.7676,-2.87487 4.46465,-6.11101 5.02445,-9.58122 0.29684,-1.84008 0.11932,-5.78824 -0.33828,-7.52358 -1.82999,-6.93992 -6.72721,-13.88749 -13.72516,-19.47161 -10.04071,-8.01212 -21.87328,-13.61731 -37.2299,-17.6361 -5.50667,-1.44109 -11.21746,-2.66692 -21.90191,-4.70132 -19.72419,-3.75562 -24.26215,-4.83035 -32.08497,-7.59872 -13.36408,-4.72933 -18.67638,-6.11009 -23.54193,-6.11898 -2.83197,-0.005 -4.19515,0.30171 -5.62704,1.26678 l -0.70792,0.47713 -12.39105,-3.81056 -12.39105,-3.81056 0.23847,-0.79238 c 0.34215,-1.13689 0.29842,-2.97361 -0.0912,-3.83129 -0.38901,-0.8563 -1.39396,-1.77252 -2.43243,-2.21766 -1.80063,-0.77184 -3.27114,-0.94252 -8.02126,-0.93104 l -4.50781,0.0109 1.23744,-0.42478 c 9.4234,-3.23474 25.93204,-1.38438 43.13351,4.83459 7.84188,2.83513 8.9833,3.43145 13.60057,7.10548 3.71946,2.95962 5.14745,3.59246 10.1759,4.50958 4.94371,0.90168 8.12399,1.09725 21.92031,1.348 8.24431,0.14984 11.49443,0.32475 18.03122,0.97039 18.13187,1.79089 30.97159,5.0471 42.5148,10.78195 10.50879,5.22094 19.00824,12.23708 26.4439,21.82899 4.38296,5.65397 6.4673,9.754 7.65834,15.06438 1.47939,6.59619 0.57809,12.54228 -2.53836,16.74614 -1.01153,1.3645 -3.59523,3.91033 -4.82745,4.75672 -2.66889,1.83321 -5.20416,2.40445 -6.93744,1.56314 z"
         id="path1024" /><path
         style="fill:#87ecc7;fill-opacity:1;stroke:none;stroke-width:0.176777;stroke-dasharray:none;stroke-opacity:1"
         d="m 615.89576,327.95222 c -3.18545,-4.86882 -7.1873,-9.81895 -11.58463,-14.32972 -6.2354,-6.39627 -12.22768,-10.99835 -18.76945,-14.41497 -4.42696,-2.3121 -7.03754,-3.27601 -17.96191,-6.63206 -4.25039,-1.30576 -9.04054,-2.82426 -10.64479,-3.37446 -9.84121,-3.37518 -16.23837,-6.78242 -20.06416,-10.68652 l -1.06066,-1.08237 1.32583,0.0937 c 0.7292,0.0515 2.47929,0.13866 3.88908,0.19361 6.89181,0.26862 16.17997,1.68142 24.34815,3.70352 14.63913,3.62405 28.00185,9.29439 38.67275,16.41038 4.43635,2.95843 7.30339,5.41953 10.09228,8.66333 6.03223,7.01617 8.33344,13.8382 6.4058,18.99027 -0.41934,1.1208 -1.81812,3.26074 -2.6514,4.05628 l -0.58843,0.56179 z"
         id="path1025" /><path
         style="fill:#87ecc7;fill-opacity:1;stroke:none;stroke-width:0.176777;stroke-dasharray:none;stroke-opacity:1"
         d="m 516.09956,274.71098 c -3.25711,-1.40328 -5.79988,-2.55409 -5.6506,-2.55734 0.40651,-0.009 12.36245,2.40436 12.47635,2.51826 0.11389,0.11389 -0.65945,2.60529 -0.80594,2.59643 -0.0538,-0.003 -2.7627,-1.15406 -6.01981,-2.55735 z"
         id="path1026" /><path
         style="fill:#87ecc7;fill-opacity:1;stroke:none;stroke-width:0.176777;stroke-dasharray:none;stroke-opacity:1"
         d="m 496.74251,290.46251 c -4.83128,-1.9514 -7.17378,-3.54959 -8.75074,-5.97026 -0.6206,-0.95264 -1.2115,-2.5296 -1.01971,-2.72139 0.0744,-0.0744 11.34182,8.64504 12.15062,9.40296 0.40499,0.37951 0.08,0.28239 -2.38017,-0.71131 z"
         id="path1027" /><path
         style="fill:#87ecc7;fill-opacity:1;stroke:none;stroke-width:0.176777;stroke-dasharray:none;stroke-opacity:1"
         d="m 517.13132,315.59059 c -4.57947,-4.53574 -7.36852,-9.87885 -8.09719,-15.51215 -0.19044,-1.47227 -0.23575,-3.18198 -0.0843,-3.18198 0.28545,0 2.4132,1.61773 3.55782,2.70501 3.99887,3.79853 6.18279,9.04595 6.69132,16.07751 0.0826,1.14158 0.0634,1.72358 -0.0568,1.72358 -0.0998,0 -1.00466,-0.81539 -2.01084,-1.81197 z"
         id="path1028" /><path
         style="fill:#87ecc7;fill-opacity:1;stroke:none;stroke-width:0.176777;stroke-dasharray:none;stroke-opacity:1"
         d="m 523.26387,432.55704 c -4.96613,-0.77165 -7.904,-2.05507 -10.38466,-4.53655 -1.14427,-1.14464 -1.51345,-1.66824 -2.24359,-3.18198 -0.83686,-1.735 -1.52759,-4.04818 -1.64184,-5.49833 l -0.0537,-0.68125 1.26183,-0.3222 c 1.68562,-0.43042 2.86548,-1.05216 3.65495,-1.926 1.15953,-1.28347 0.77741,-2.6053 -0.9785,-3.38483 -0.79401,-0.35249 -1.22947,-0.41534 -2.92181,-0.42166 -1.86732,-0.007 -1.98893,-0.029 -1.99193,-0.36099 -0.002,-0.19445 -0.0817,-2.84294 -0.17767,-5.88554 -0.18564,-5.88583 -0.0417,-9.9185 0.4586,-12.85279 0.40877,-2.39726 1.51377,-6.59492 3.46686,-13.16986 3.91715,-13.18685 4.91746,-18.25794 4.91746,-24.92907 0,-4.58573 -0.48998,-7.84214 -1.74447,-11.59384 -0.81038,-2.42351 -1.79143,-4.08405 -4.35965,-7.3792 -3.89128,-4.9927 -4.10517,-5.37792 -6.34568,-11.429 -0.846,-2.28484 -2.09928,-5.29891 -2.78505,-6.69793 -1.09075,-2.22518 -1.40476,-2.70264 -2.50776,-3.81309 -0.80874,-0.81421 -1.48051,-1.33008 -1.87334,-1.43861 l -0.61246,-0.16921 -0.9241,-7.85725 c -0.50826,-4.32148 -0.90883,-7.87222 -0.89015,-7.89053 0.0283,-0.0277 17.60179,23.64063 18.40755,24.79161 l 0.26052,0.37213 -2.08033,-0.0857 c -1.8228,-0.0751 -2.18072,-0.0413 -2.89137,0.27308 -1.33428,0.59022 -1.37055,1.75395 -0.0934,2.99867 1.5493,1.51001 3.80053,2.2468 6.53001,2.13717 l 1.73281,-0.0696 0.72909,2.30435 c 7.093,22.41776 8.6339,33.89819 6.50201,48.44306 -0.19951,1.36118 -0.9922,5.8347 -1.76154,9.94117 -2.2768,12.15282 -2.74724,16.17377 -2.59481,22.17832 0.15915,6.26932 1.04302,9.51358 5.23809,19.22638 0.69105,1.59999 1.25646,2.97222 1.25646,3.0494 0,0.18973 -0.67091,0.15292 -2.55841,-0.14036 z"
         id="path1029" /><path
         style="fill:#87ecc7;fill-opacity:1;stroke:none;stroke-width:0.176777;stroke-dasharray:none;stroke-opacity:1"
         d="m 545.34729,418.96146 c -7.19423,-2.61847 -10.82712,-3.69392 -13.75376,-4.07153 -2.43823,-0.31459 -3.28803,-0.51212 -4.196,-0.97533 -2.61456,-1.33385 -3.33758,-5.62618 -2.10065,-12.47083 0.4088,-2.26214 0.96018,-4.55694 2.45401,-10.21339 1.83337,-6.94211 2.4765,-11.71322 2.61245,-19.3806 0.13666,-7.70736 -0.50788,-14.44848 -2.16071,-22.59849 -0.54773,-2.70084 -2.17775,-9.47668 -2.72835,-11.34147 -0.10028,-0.33965 -0.18233,-0.66793 -0.18233,-0.72951 0,-0.0616 0.77561,-0.28937 1.72357,-0.5062 5.051,-1.15535 8.94233,-3.56971 12.24533,-7.59756 l 1.32228,-1.61246 0.88389,0.0516 0.88388,0.0516 0.12023,0.97227 c 0.94484,7.64043 1.61453,17.41797 2.35503,34.38306 1.10549,25.32764 2.18699,36.5242 4.70307,48.69 0.4923,2.38036 2.02627,8.80016 2.22895,9.32833 0.0485,0.12628 -0.0199,0.2255 -0.15178,0.22049 -0.13194,-0.005 -2.94854,-0.99496 -6.25911,-2.19991 z"
         id="path1030" /><path
         style="fill:#87ecc7;fill-opacity:1;stroke:none;stroke-width:0.176777;stroke-dasharray:none;stroke-opacity:1"
         d="m 577.90844,374.80496 c -0.28159,-1.12196 -0.46472,-3.94473 -0.46696,-7.19782 -0.003,-4.3979 -0.21751,-5.94703 -1.39513,-10.07627 -2.88474,-10.11512 -8.24752,-22.71896 -13.76459,-32.35014 -0.86328,-1.50702 -2.18502,-3.83154 -2.93721,-5.16561 -3.01313,-5.34403 -5.0573,-7.81292 -7.44013,-8.98599 -1.0466,-0.51523 -1.42774,-0.60477 -2.83667,-0.66639 -1.17597,-0.0514 -1.9098,0.0108 -2.64445,0.22441 -0.55924,0.16257 -1.03894,0.271 -1.06598,0.24094 -0.0464,-0.0516 -1.85737,-10.79183 -1.85737,-11.01538 0,-0.0576 0.33808,0.1263 0.7513,0.40877 0.41321,0.28247 3.96581,2.56064 7.89465,5.06259 16.34462,10.40852 22.2722,14.84911 28.83071,21.59828 7.72102,7.94547 13.24084,17.22946 14.96396,25.16844 0.46614,2.14765 0.46321,7.17968 -0.005,8.91229 -1.82474,6.74973 -6.99094,11.18089 -16.0834,13.79505 -0.86162,0.24772 -1.6286,0.4504 -1.70441,0.4504 -0.0758,0 -0.18342,-0.18161 -0.23913,-0.40357 z"
         id="path1031" /><path
         style="fill:#87ecc7;fill-opacity:1;stroke:none;stroke-width:0.176777;stroke-dasharray:none;stroke-opacity:1"
         d="m 597.60116,334.70218 c -1.26038,-0.20894 -2.48933,-0.78937 -3.84716,-1.81701 -1.28286,-0.9709 -2.2907,-2.09704 -4.91747,-5.49473 -2.67497,-3.46002 -3.41578,-4.26732 -6.76602,-7.3732 -4.5195,-4.18986 -8.30711,-7.41156 -13.55666,-11.53114 -5.13909,-4.0329 -7.66311,-5.53959 -17.80661,-10.62953 -10.15079,-5.09359 -13.79141,-7.25497 -17.65209,-10.47977 -1.6439,-1.37315 -4.58483,-4.34162 -5.30925,-5.35897 -0.47495,-0.66701 -0.30642,-0.65574 2.15002,0.14374 1.90081,0.61864 5.49322,2.32946 11.76178,5.60136 3.23392,1.68796 5.20872,2.48287 12.8024,5.15332 13.25783,4.66234 19.05179,6.91859 25.52941,9.94153 14.41816,6.72858 23.8784,14.59147 28.82348,23.95665 0.88649,1.67888 2.18221,4.7525 2.44521,5.80035 l 0.11221,0.44711 -3.66222,0.7404 c -5.43776,1.09935 -7.69276,1.30013 -10.10703,0.89989 z"
         id="path1032" /><path
         style="fill:#87ecc7;fill-opacity:1;stroke:none;stroke-width:0.176777;stroke-dasharray:none;stroke-opacity:1"
         d="m 594.03577,389.53202 c -3.77271,-0.47636 -7.03686,-2.07389 -9.72062,-4.75744 -1.15847,-1.15837 -3.49721,-4.34909 -3.31272,-4.51949 0.0344,-0.0318 0.85806,-0.2725 1.83033,-0.53492 10.45576,-2.82205 16.92903,-8.79487 18.64205,-17.20083 1.13925,-5.59039 0.2514,-12.49517 -2.54899,-19.8233 -0.34994,-0.91573 -0.57408,-1.71904 -0.49809,-1.78512 0.12495,-0.10867 16.30693,-2.83742 16.77666,-2.82903 0.44473,0.008 2.50586,5.18006 3.49643,8.77379 1.28779,4.67203 1.87467,9.03906 1.87232,13.93206 -0.003,6.06391 -1.00962,10.98942 -3.09917,15.16334 -1.31223,2.6212 -2.30309,3.97422 -4.57901,6.2526 -3.08662,3.08996 -6.20421,5.05385 -10.04185,6.32574 -2.70358,0.89603 -6.36452,1.31231 -8.81734,1.0026 z"
         id="path1033" /><path
         style="fill:#87ecc7;fill-opacity:1;stroke:none;stroke-width:0.176777;stroke-dasharray:none;stroke-opacity:1"
         d="m 487.99207,436.45591 c 0,-0.0518 3.14143,-6.7936 6.98096,-14.98183 5.81653,-12.40439 6.98154,-14.76974 6.98439,-14.18058 0.009,1.95972 0.40316,6.99179 0.71223,9.104 0.76141,5.20369 2.42751,10.13926 4.96592,14.71082 0.47443,0.85441 0.86241,1.61295 0.8622,1.68564 -3.5e-4,0.11577 -19.71235,3.76941 -20.28473,3.7598 -0.12154,-0.002 -0.22097,-0.0461 -0.22097,-0.0978 z"
         id="path1034" /><path
         style="fill:#87ecc7;fill-opacity:1;stroke:none;stroke-width:0.176777;stroke-dasharray:none;stroke-opacity:1"
         d="m 194.48594,413.92257 c -3.92084,-0.48753 -7.32552,-2.53522 -9.39755,-5.65199 -0.7641,-1.14937 -1.63683,-2.95373 -1.4869,-3.07415 0.0382,-0.0307 1.06115,-0.39238 2.27317,-0.80373 9.42328,-3.19825 17.15053,-8.36809 25.29311,-16.92213 5.38634,-5.65852 11.06247,-13.44404 19.70135,-27.02289 6.44018,-10.12286 11.03447,-16.86971 14.5656,-21.38998 5.07111,-6.49164 10.76771,-12.20959 16.07217,-16.13242 1.56568,-1.15788 5.68736,-3.81912 5.77384,-3.72799 0.0321,0.0338 -0.41654,0.77737 -0.9969,1.65241 -5.59008,8.42863 -9.4624,15.86503 -19.23887,36.94633 -10.7224,23.12106 -17.1105,33.72999 -26.75641,44.43524 -3.31302,3.67687 -6.83791,6.36576 -11.11681,8.48024 -5.00356,2.47257 -10.66665,3.71081 -14.6858,3.21106 z"
         id="path1035" /><path
         style="fill:#87ecc7;fill-opacity:1;stroke:none;stroke-width:0.176777;stroke-dasharray:none;stroke-opacity:1"
         d="m 247.44318,374.91402 c -0.95298,-0.30754 -1.45841,-0.56082 -1.45841,-0.73084 0,-0.14311 0.40414,-1.58183 0.89809,-3.19715 6.15219,-20.11914 13.71991,-35.36956 22.72997,-45.8053 1.90284,-2.20394 5.60258,-5.83731 7.55447,-7.41897 2.5052,-2.03 8.40359,-5.73329 8.6844,-5.45248 0.13226,0.13226 -1.46725,3.65365 -2.27758,5.01419 -0.46022,0.7727 -1.54426,2.39928 -2.40899,3.61462 -6.08031,8.54565 -7.51809,11.49618 -11.84871,24.3153 -4.28769,12.69205 -5.90066,16.51844 -9.51043,22.56134 -2.36734,3.96302 -4.11061,5.93055 -6.15828,6.95052 -0.91137,0.45397 -1.25365,0.52114 -2.88997,0.56718 -1.61508,0.0454 -2.04557,-0.009 -3.31456,-0.41841 z"
         id="path1036" /><path
         style="fill:#87ecc7;fill-opacity:1;stroke:none;stroke-width:0.176777;stroke-dasharray:none;stroke-opacity:1"
         d="m 243.77506,397.42002 c -0.48613,-0.22686 -1.17258,-0.73275 -1.52544,-1.12419 -2.83657,-3.14678 -1.5707,-10.67022 2.52378,-14.99953 l 0.8911,-0.94221 0.59644,1.18373 c 0.67592,1.34145 1.44611,1.97986 2.38642,1.97805 1.06289,-0.002 2.09786,-0.97897 2.64163,-2.49352 l 0.22925,-0.63853 1.60849,-0.10122 c 5.42171,-0.3412 9.6333,-4.35512 14.22672,-13.55903 3.44445,-6.90169 5.295,-11.43383 8.91448,-21.83224 3.69779,-10.6234 5.3707,-14.84536 7.82406,-19.74577 2.85535,-5.70336 5.56021,-9.5356 9.20833,-13.04631 2.40411,-2.31356 4.65903,-3.9277 7.39684,-5.29491 1.98741,-0.99248 5.77179,-2.38602 6.1433,-2.26219 0.20012,0.0667 -5.21411,10.90999 -8.71637,17.4566 -1.37837,2.57652 -4.71165,8.70183 -7.4073,13.61181 -10.27805,18.72089 -12.10697,22.18763 -17.76621,33.67596 -4.13907,8.40236 -5.87722,11.60602 -8.07719,14.88741 -4.06312,6.06037 -8.86503,10.38534 -13.8728,12.4949 -2.96445,1.2488 -5.57716,1.52042 -7.22553,0.75119 z"
         id="path1037" /><path
         style="fill:#87ecc7;fill-opacity:1;stroke:none;stroke-width:0.176777;stroke-dasharray:none;stroke-opacity:1"
         d="m 277.45102,469.70024 -9.63433,-1.46493 -8.59794,-4.24447 -8.59795,-4.24446 -0.35393,-0.94737 c -3.0183,-8.07908 -3.90973,-18.57501 -2.16021,-25.43484 0.98623,-3.86698 2.80839,-6.96753 5.37575,-9.14727 l 0.88393,-0.75047 0.0249,-2.25283 c 0.0394,-3.56698 0.91531,-6.56571 3.23971,-11.09167 1.30713,-2.54517 2.12277,-3.89549 6.24664,-10.34143 2.53582,-3.96369 8.32452,-14.29974 14.10803,-25.19068 4.56929,-8.60445 10.27057,-20.35407 13.20974,-27.22361 l 0.68071,-1.591 0.93689,-0.054 0.93688,-0.054 -0.1166,1.9102 c -0.75986,12.44769 -5.0345,23.43096 -16.07479,41.30262 -2.70032,4.37119 -3.5052,5.3801 -5.88618,7.37825 -4.95726,4.16021 -6.40843,5.64079 -7.07664,7.22012 -0.56557,1.33674 -0.24795,3.00448 0.78206,4.10641 l 0.43745,0.46799 -0.81716,2.50033 c -4.68675,14.34033 -5.48707,25.27977 -2.65937,36.35068 0.79385,3.10804 2.50457,8.22027 3.53085,10.55142 2.20032,4.9979 4.54763,6.89457 6.41344,5.18217 0.65917,-0.60497 0.66028,-0.60844 0.64081,-1.98874 -0.0181,-1.28368 -0.11471,-1.62328 -1.34869,-4.74147 -1.68764,-4.26453 -2.66636,-7.16657 -3.40727,-10.10297 -0.57626,-2.28387 -1.29258,-6.69211 -1.11611,-6.86858 0.0851,-0.0851 6.36193,0.76834 6.47566,0.88046 0.10807,0.10653 14.17677,31.11477 14.17677,31.24642 0,0.20001 0.166,0.22207 -10.25305,-1.36219 z"
         id="path1038" /><path
         style="fill:#87ecc7;fill-opacity:1;stroke:none;stroke-width:0.176777;stroke-dasharray:none;stroke-opacity:1"
         d="m 234.62255,414.55513 c -1.29674,-0.53324 -2.67314,-1.57149 -3.83863,-2.89555 -1.62283,-1.84364 -5.12651,-6.65288 -5.1275,-7.03816 -5.9e-4,-0.22701 1.63996,-2.3808 4.17417,-5.48008 2.29633,-2.80835 4.2267,-5.12641 4.28971,-5.15124 0.063,-0.0248 0.25432,0.48772 0.42514,1.139 0.80799,3.08066 2.77361,5.70309 5.14261,6.86104 1.96399,0.95997 3.21911,1.22054 5.85478,1.21546 2.45751,-0.005 4.9121,-0.3898 7.77686,-1.21997 0.83009,-0.24055 1.58867,-0.43737 1.68574,-0.43737 0.28583,0 -0.27115,1.14017 -1.27655,2.61316 -2.09543,3.06999 -6.70369,7.03673 -10.38435,8.93872 -3.67498,1.89907 -6.4972,2.36987 -8.72198,1.45499 z"
         id="path1039" /><path
         style="fill:#87ecc7;fill-opacity:1;stroke:none;stroke-width:0.176777;stroke-dasharray:none;stroke-opacity:1"
         d="m 220.62419,433.89082 c -2.88691,-0.45424 -5.26318,-1.61746 -7.17406,-3.51183 -1.55955,-1.54607 -2.43103,-3.12049 -2.99339,-5.40782 -0.30592,-1.24427 -1.16707,-8.19366 -1.02905,-8.30426 0.28884,-0.23147 12.22148,-7.51451 12.25195,-7.47793 0.0225,0.027 0.20907,0.43428 0.41464,0.9051 0.66148,1.51497 2.00887,3.33714 3.74329,5.06229 4.63319,4.60844 10.0011,6.83974 13.79535,5.73439 1.86049,-0.54201 3.8242,-1.80709 6.7054,-4.31982 0.72921,-0.63595 1.71627,-1.47209 2.19348,-1.85809 l 0.86765,-0.70183 -0.13246,0.70606 c -0.31066,1.65606 -1.57924,4.13964 -3.31131,6.48278 -4.42242,5.98262 -12.15778,11.00884 -19.12439,12.42648 -1.7306,0.35216 -4.81465,0.48357 -6.2071,0.26448 z"
         id="path1040" /><path
         style="fill:#87ecc7;fill-opacity:1;stroke:none;stroke-width:0.176777;stroke-dasharray:none;stroke-opacity:1"
         d="m 318.86662,495.15633 c -1.42171,-0.40047 -3.22879,-1.38198 -4.66626,-2.53447 -2.10368,-1.68661 -7.7931,-7.61958 -10.8815,-11.34731 -4.97007,-5.99891 -10.18356,-14.25715 -14.72949,-23.3317 -1.91013,-3.81298 -7.20785,-15.25257 -7.97596,-17.22283 -0.99239,-2.54553 -1.60969,-5.17987 -1.63693,-6.98568 -0.0237,-1.56924 0.1733,-3.19819 0.38572,-3.19001 0.067,0.003 0.95454,1.73278 1.97238,3.84489 11.82872,24.54555 23.70354,40.43275 38.63394,51.68794 1.82282,1.37411 6.01429,4.19989 7.30926,4.92771 0.40226,0.22608 0.73138,0.46583 0.73138,0.53277 0,0.22723 -1.5878,1.58659 -2.67085,2.2866 -2.14895,1.38894 -4.53,1.87904 -6.47169,1.33209 z"
         id="path1041" /><path
         style="fill:#87ecc7;fill-opacity:1;stroke:none;stroke-width:0.176777;stroke-dasharray:none;stroke-opacity:1"
         d="m 318.19311,475.09144 c -5.5935,-0.79171 -10.1842,-4.14296 -12.79838,-9.34292 -0.63605,-1.26519 -1.78076,-4.5661 -1.78076,-5.13504 0,-0.20644 0.0597,-0.37335 0.13259,-0.3709 0.0729,0.002 5.1442,2.93044 11.26951,6.50664 9.93676,5.80148 11.14288,6.55261 11.19208,6.9701 0.0503,0.4269 -0.0272,0.49169 -0.88388,0.73911 -2.20611,0.63713 -5.21505,0.90422 -7.13116,0.63301 z"
         id="path1042" /><path
         style="fill:#87ecc7;fill-opacity:1;stroke:none;stroke-width:0.125;stroke-dasharray:none;stroke-opacity:1"
         d="m 383.68435,378.17989 c -0.22112,-0.53383 -0.81544,-0.94832 -1.68424,-1.17461 -1.22613,-0.31937 -2.30918,-0.24425 -6.11883,0.42436 -2.91211,0.51108 -5.96475,0.46893 -8.24331,-0.11382 -5.48654,-1.40322 -9.53451,-5.54515 -13.81862,-14.13935 -3.52867,-7.07876 -5.54613,-14.50433 -6.68739,-24.61397 -0.58329,-5.16704 -0.84872,-19.25436 -0.56406,-29.9375 0.12496,-4.68999 0.25104,-6.7356 0.4259,-6.91047 0.2382,-0.2382 0.32939,0.40071 0.26375,1.84797 -0.039,0.85937 -0.13153,2.9125 -0.20567,4.5625 -0.22035,4.90395 -0.18346,14.42318 0.0634,16.375 0.57766,4.56643 1.58254,7.71545 3.29081,10.3125 2.28666,3.47635 5.72034,5.25 10.16369,5.25 3.0081,0 4.34114,-0.34557 13.68017,-3.54634 1.925,-0.65975 3.56421,-1.20048 3.6427,-1.20161 0.13306,-0.002 0.28134,0.67788 0.86666,3.97333 0.1136,0.63958 0.1837,1.18573 0.15577,1.21365 -0.0279,0.0279 -0.35775,-0.028 -0.73295,-0.1243 -1.00585,-0.25816 -2.61305,-0.45231 -3.91725,-0.47322 -1.37891,-0.0221 -1.99376,0.22206 -2.38993,0.94905 -0.21124,0.38764 -0.31515,0.45882 -0.67024,0.4591 l -0.42023,3.4e-4 0.0598,3.53125 c 0.0692,4.09194 0.28314,5.66762 1.10644,8.15094 0.40474,1.22083 0.62475,1.66743 1.2008,2.4375 2.65323,3.54689 4.9994,5.93442 8.2507,8.39614 1.85006,1.40077 2.59,2.15686 3.22897,3.29945 0.9713,1.73684 1.46233,3.71885 1.4703,5.93472 0.006,1.60519 -0.25093,2.95537 -0.74267,3.9063 -0.212,0.40995 -1.26915,1.5937 -1.42326,1.5937 -0.051,0 -0.16405,-0.17217 -0.25121,-0.38261 z"
         id="path1044" /><path
         style="fill:#87ecc7;fill-opacity:1;stroke:none;stroke-width:0.125;stroke-dasharray:none;stroke-opacity:1"
         d="m 381.25,344.53872 c 0.66545,-0.47178 1.98829,-1.91489 2.41933,-2.63929 1.00882,-1.69546 1.40028,-3.48272 1.1527,-5.26279 -0.27207,-1.95607 -0.89426,-3.08737 -2.69329,-4.89707 -1.75239,-1.76278 -3.31538,-2.39183 -5.62874,-2.26536 -1.59924,0.0874 -3.08955,0.48304 -6.04137,1.60371 -6.06049,2.3009 -7.13577,2.64848 -8.87188,2.86785 -1.37646,0.17392 -2.50893,-0.0403 -4.00418,-0.75749 -2.39977,-1.15102 -3.71117,-3.32772 -3.95419,-6.56328 -0.16669,-2.21929 -0.56535,-18.18213 -0.56505,-22.625 3.6e-4,-5.20583 0.12199,-7.83127 0.50361,-10.87119 0.72783,-5.79763 2.43204,-9.96473 5.09069,-12.44761 0.51161,-0.47779 0.97509,-0.8687 1.02997,-0.8687 0.0549,0 0.12748,4.37344 0.16134,9.71875 0.0649,10.2479 0.081,10.57093 0.714,14.33036 0.64301,3.819 1.53795,6.82002 2.79973,9.38839 1.94615,3.96141 4.59279,6.52421 8.26233,8.00063 1.66081,0.66822 2.88557,0.92071 5.19987,1.07199 5.04013,0.32946 8.60081,-0.37302 17.17513,-3.38845 3.81431,-1.34143 4.6875,-1.62952 4.6875,-1.54658 0,0.0278 -0.50132,0.92284 -1.11404,1.98889 -0.61272,1.06604 -1.32511,2.47156 -1.58309,3.12336 l -0.46906,1.18511 -0.69815,0.25864 c -1.81882,0.67381 -3.8157,2.3302 -4.60116,3.81659 -0.85502,1.61803 -0.98155,3.02739 -0.45523,5.07047 0.28459,1.10475 0.32051,1.44972 0.26474,2.5425 -0.21412,4.19535 -3.44891,7.9593 -7.904,9.19696 -1.12609,0.31284 -1.35167,0.30477 -0.87751,-0.0314 z"
         id="path1046" /><path
         style="fill:#87ecc7;fill-opacity:1;stroke:none;stroke-width:0.125;stroke-dasharray:none;stroke-opacity:1"
         d="m 375.7052,315.80782 c -5.15053,-1.34902 -8.78304,-6.7364 -10.19505,-15.12032 -0.48569,-2.88384 -0.6122,-4.97439 -0.5387,-8.902 0.0866,-4.62577 0.50931,-7.82219 1.52173,-11.50616 0.43943,-1.599 1.15401,-3.34992 1.43906,-3.52609 0.36038,-0.22273 0.41966,0.24074 0.52239,4.08428 0.18681,6.98895 0.40864,9.07772 1.23143,11.59557 0.95612,2.92583 2.3156,4.47887 4.11777,4.70403 1.97337,0.24656 4.73133,-0.948 4.95621,-2.14668 0.13123,-0.69951 -0.0373,-1.2159 -0.58168,-1.78245 -0.59269,-0.61682 -1.19631,-1.01063 -2.02211,-1.31927 -0.57768,-0.2159 -0.59377,-0.23601 -0.59428,-0.74282 -8.9e-4,-0.86776 0.87746,-16.87537 0.94221,-17.17155 0.0393,-0.17958 0.20152,-0.316 0.46554,-0.39143 0.22291,-0.0637 5.2602,-1.53473 11.19399,-3.26898 5.93379,-1.73426 10.81362,-3.12828 10.84407,-3.09783 0.11087,0.11086 -0.47041,1.57265 -1.27293,3.20115 -0.94121,1.90992 -2.75358,4.66427 -5.59772,8.50714 -6.70239,9.05596 -8.75305,13.15604 -7.88586,15.76693 0.39458,1.18795 1.73058,2.15729 2.64406,1.91841 0.21622,-0.0566 0.27374,0.003 0.33879,0.34857 0.12804,0.68084 0.75036,1.86628 1.39106,2.64982 1.76642,2.1602 5.65565,4.21038 9.41841,4.96483 2.315,0.46417 4.88956,0.43416 6.59678,-0.0769 l 0.26537,-0.0794 -0.25664,0.72917 c -0.38874,1.10448 -0.44709,4.07781 -0.10944,5.57635 l 0.24721,1.09716 -0.33093,0.16882 c -0.18202,0.0929 -0.73436,0.29785 -1.22742,0.45555 l -0.89647,0.28671 -0.72853,-0.32321 c -1.82069,-0.80776 -3.41541,-0.99547 -5.654,-0.66553 -1.91852,0.28277 -3.5396,0.71499 -7.76202,2.06954 -1.95938,0.62857 -4.25987,1.33565 -5.1122,1.57129 -2.52428,0.69787 -5.64248,0.87782 -7.3701,0.42532 z"
         id="path1048" /><path
         style="fill:#87ecc7;fill-opacity:1;stroke:none;stroke-width:0.0625;stroke-dasharray:none;stroke-opacity:1"
         d="m 267.93282,416.48437 c 0.0192,-0.0602 0.43835,-1.31869 0.93134,-2.79674 l 0.89635,-2.68737 0.91662,2.74988 c 0.50414,1.51243 0.91662,2.77097 0.91662,2.79674 0,0.0258 -0.83158,0.0469 -1.84796,0.0469 -1.73163,0 -1.84576,-0.007 -1.81297,-0.10938 z"
         id="path1049" /><path
         style="fill:#ffffff;fill-opacity:1;stroke:none;stroke-width:0.0883883;stroke-dasharray:none;stroke-opacity:1"
         d="m 280.86633,409.45297 c -0.24841,-0.74353 -0.43816,-1.36538 -0.42165,-1.38189 0.0165,-0.0165 0.83184,-0.0192 1.81184,-0.006 l 1.78181,0.024 -1.36016,1.35792 -1.36017,1.35793 z"
         id="path1050" /><path
         style="fill:#ffffff;fill-opacity:1;stroke:none;stroke-width:0.125;stroke-dasharray:none;stroke-opacity:1"
         d="m 477.69432,305.96875 c -0.75094,-1.15156 -3.95275,-6.05938 -7.11513,-10.90625 l -5.74979,-8.8125 0.51127,-0.0394 c 0.73334,-0.0565 2.83682,0.30096 3.95354,0.67189 6.37733,2.11827 9.76728,8.07932 10.51638,18.49251 0.0692,0.9625 0.12612,1.96094 0.1264,2.21875 4.9e-4,0.45276 -0.0145,0.46875 -0.4384,0.46875 -0.43007,0 -0.46642,-0.0422 -1.80427,-2.09375 z"
         id="path1051" /><path
         style="fill:#ffffff;fill-opacity:1;stroke:none;stroke-width:0.125;stroke-dasharray:none;stroke-opacity:1"
         d="m 461.88559,309.91553 c -3.58906,-0.48152 -5.94964,-2.33206 -6.15891,-4.82818 -0.0855,-1.02028 0.14263,-1.92218 0.81266,-3.21235 0.76785,-1.47851 4.13495,-4.60893 4.24766,-3.94907 0.13009,0.76164 1.86562,12.07548 1.85327,12.08143 -0.008,0.004 -0.348,-0.0373 -0.75468,-0.0918 z"
         id="path1052" /><path
         style="fill:#ffffff;fill-opacity:1;stroke:none;stroke-width:0.125;stroke-dasharray:none;stroke-opacity:1"
         d="m 438.82895,333.74466 c -0.53021,-0.44614 -0.61279,-1.12308 -0.29127,-2.38776 0.1373,-0.54005 0.45089,-1.42204 0.69687,-1.95998 0.50187,-1.09757 0.45612,-1.08314 1.60458,-0.50596 0.78325,0.39363 1.47191,1.01252 1.67949,1.50932 0.50973,1.21997 -0.27087,2.61311 -1.88545,3.36494 -0.82768,0.38541 -1.32854,0.3797 -1.80422,-0.0206 z"
         id="path1053" /><path
         style="fill:#7bf2ec;fill-opacity:1;stroke:none;stroke-width:0.125;stroke-dasharray:none;stroke-opacity:1"
         d="m 450.6875,341.98152 c -1.6401,-0.24633 -2.54041,-0.47995 -3.6504,-0.94726 l -0.5879,-0.24751 1.25015,-2.49793 c 1.5118,-3.02072 1.99703,-4.38427 2.08224,-5.85132 0.11714,-2.01689 -0.59892,-3.73385 -3.15396,-7.5625 -2.59796,-3.89295 -3.14065,-5.26989 -3.02985,-7.6875 0.0699,-1.52541 0.34885,-2.52426 1.16594,-4.17513 0.99326,-2.00682 1.94346,-2.94987 2.97222,-2.94987 0.59911,0 1.01764,0.22697 1.6526,0.89622 1.60666,1.69341 2.91057,4.68979 5.04848,11.60138 0.56315,1.82055 1.10066,3.45855 1.19449,3.63999 0.32925,0.6367 1.45562,1.49532 2.79894,2.13359 3.18656,1.5141 3.61178,1.74196 4.17359,2.23648 0.88067,0.7752 1.11111,1.31783 1.18285,2.78528 0.0717,1.46608 -0.0878,2.31003 -0.66499,3.51956 -0.54785,1.14798 -1.46048,2.14833 -2.72284,2.98456 -1.56858,1.03909 -3.00677,1.58147 -5.19273,1.95835 -1.29478,0.22323 -3.57273,0.3057 -4.51883,0.16361 z"
         id="path1054" /><path
         style="fill:#a7f6f3;fill-opacity:1;stroke:none;stroke-width:0.125;stroke-dasharray:none;stroke-opacity:1"
         d="m 434.9375,309.57134 v -14.74996 l 0.56256,0.24115 c 1.02482,0.43928 3.32595,1.11855 4.6641,1.37679 1.48482,0.28654 3.69845,0.34427 4.54712,0.11857 2.06612,-0.54945 2.47653,-2.36673 1.13803,-5.03907 -0.16699,-0.3334 -0.28578,-0.61841 -0.26397,-0.63336 0.0218,-0.0149 1.50706,-0.65451 3.30055,-1.42125 l 3.26089,-1.39407 6.11411,2.82171 c 3.36276,1.55195 6.12792,2.83436 6.14481,2.8498 0.0169,0.0154 -1.00063,0.43758 -2.26113,0.93808 l -2.29183,0.91 -0.42637,-0.23129 c -0.5946,-0.32254 -2.28638,-0.31851 -3.28483,0.008 -2.33598,0.76348 -5.25761,2.80676 -8.48913,5.93699 -4.8562,4.70399 -8.8392,10.29027 -9.51565,13.34599 -0.10948,0.49458 -0.28261,1.88829 -0.38472,3.09714 -0.21022,2.48875 -0.41828,3.5358 -0.88602,4.45883 -0.32764,0.64657 -1.29119,1.77499 -1.70454,1.99621 -0.21472,0.11492 -0.22398,-0.48989 -0.22398,-14.63008 z"
         id="path1055" /><path
         style="fill:#bdf5f2;fill-opacity:1;stroke:none;stroke-width:0.125;stroke-dasharray:none;stroke-opacity:1"
         d="m 450.5,362.69081 c -8.3264,-1.8055 -17.05955,-11.11106 -24.63392,-26.24855 -2.72311,-5.44218 -3.84608,-9.14528 -3.84896,-12.69226 -0.002,-2.95377 0.61492,-4.66278 2.28247,-6.31888 0.52273,-0.51913 1.16455,-1.06756 1.42628,-1.21873 l 0.47587,-0.27486 0.44259,0.96873 c 0.70403,1.54097 1.79748,4.20606 3.40359,8.29563 3.62405,9.22784 5.44671,13.08769 8.10931,17.17311 3.1395,4.81717 7.51916,8.83372 11.32357,10.38477 1.93747,0.7899 2.80643,0.96254 4.8942,0.97237 1.66785,0.008 2.01011,-0.0285 3.09794,-0.32856 2.5195,-0.69507 4.53014,-1.90503 6.58956,-3.96545 1.56306,-1.56381 2.59321,-2.98685 3.61963,-5.00011 1.71028,-3.35459 2.46702,-6.99124 2.12631,-10.21825 -0.0854,-0.80837 -0.16154,-1.60372 -0.16931,-1.76743 -0.013,-0.27288 0.25009,-0.41099 3.16005,-1.65916 1.7458,-0.74882 3.19628,-1.33939 3.2233,-1.31237 0.0826,0.0826 -0.81341,6.61048 -1.28079,9.33169 -1.03977,6.05384 -2.16534,9.99672 -3.62188,12.6875 -2.952,5.45349 -8.11899,9.59946 -13.73433,11.02037 -1.77643,0.44951 -5.20691,0.53443 -6.88548,0.17044 z"
         id="path1056" /><path
         style="fill:#ffffff;fill-opacity:1;stroke:none;stroke-width:0.125;stroke-dasharray:none;stroke-opacity:1"
         d="m 423.48039,306.875 c 0.10218,-3.09289 0.5958,-4.59835 1.81184,-5.52586 0.71828,-0.54784 1.65803,-0.80701 2.75973,-0.76109 l 0.8863,0.0369 -2.76197,4.125 -2.76198,4.125 z"
         id="path1057" /><path
         style="fill:#5e4c75;fill-opacity:1;stroke:none;stroke-width:0.125;stroke-dasharray:none;stroke-opacity:1"
         d="m 428.1297,290.92566 c 4.3533,-4.46939 12.69239,-8.83585 20.86642,-10.92594 5.45266,-1.39424 10.83402,-1.70182 14.58248,-0.83349 0.92072,0.21328 0.92143,0.21377 0.95905,0.66067 l 0.0377,0.44724 -1.40512,0.0853 c -4.22724,0.25674 -9.23446,1.23524 -14.18317,2.77165 -4.18575,1.29953 -7.65008,2.63617 -15.83405,6.1092 -3.00963,1.27719 -5.51064,2.32217 -5.55781,2.32217 -0.0472,0 0.19338,-0.28658 0.53455,-0.63684 z"
         id="path1058" /><path
         style="fill:#5e4c75;fill-opacity:1;stroke:none;stroke-width:0.0441942;stroke-dasharray:none;stroke-opacity:1"
         d="m 292.12349,401.06829 c 2.46473,-0.50405 3.62188,-0.75605 5.03813,-1.09716 5.38778,-1.29767 9.09465,-2.6166 14.38521,-5.11837 1.09741,-0.51894 8.10604,-3.979 8.83883,-4.3636 2.94619,-1.54631 5.14713,-2.88794 11.4021,-6.95037 2.87255,-1.86565 4.5882,-2.96816 5.80697,-3.73168 1.09756,-0.6876 1.2251,-0.73473 1.04782,-0.38724 -0.23427,0.45922 -1.28426,1.64558 -2.78722,3.14922 -1.16607,1.1666 -1.86024,1.80409 -2.96272,2.72079 -4.1983,3.49087 -9.47562,6.62762 -15.51215,9.22017 -7.69425,3.3045 -16.62263,5.67785 -25.63262,6.81369 -2.04131,0.25733 -2.00241,0.23088 0.37565,-0.25545 z"
         id="path1061" /><path
         style="fill:#2e3037;fill-opacity:1;stroke:none;stroke-width:0.512589;stroke-dasharray:none;stroke-opacity:1"
         d="m 70.954551,405.14054 c -8.684408,-0.47221 -22.813477,-1.80187 -27.045172,-2.54518 -6.103859,-1.07216 -12.417889,-3.10421 -13.681115,-4.40305 -1.52251,-1.5654 -1.217137,-4.41048 1.349502,-12.57293 4.879298,-15.51722 10.574779,-24.85037 21.55303,-35.31879 3.385959,-3.22871 10.268087,-9.97747 15.293615,-14.99723 C 78.713401,325.0262 84.369988,320.7808 95.977655,314.62402 117.38969,303.26696 138.99754,298.30174 174.38918,296.606 l 6.88083,-0.32967 0.30065,2.50687 c 0.16535,1.37879 0.77619,7.65251 1.35742,13.94161 0.58122,6.2891 1.16312,11.95644 1.29309,12.5941 0.21472,1.05329 1.84263,0.0487 17.7959,-10.98091 28.25657,-19.53593 41.89479,-28.03092 59.69608,-37.18356 31.59473,-16.2446 66.63779,-29.17092 107.18143,-39.53593 11.63746,-2.97512 32.68736,-7.79547 34.04199,-7.79547 0.37186,0 1.30022,1.47299 2.06304,3.27329 1.82994,4.31888 3.83885,6.73686 6.77686,8.15678 6.25729,3.02414 16.66928,-0.428 35.28291,-11.69825 22.1163,-13.39105 24.96965,-14.80486 29.87922,-14.80486 6.63034,0 16.87216,3.96057 30.27734,11.70841 2.78035,1.60696 9.10299,5.14078 14.05033,7.85293 15.92755,8.73156 20.86682,11.13309 24.74313,5.3184 2.42356,-3.63548 5.06813,-9.57008 6.90124,-16.96994 0.45723,-1.84594 3.63376,-1.49341 4.16753,-1.48222 0.43403,0.009 18.36944,4.2632 27.40774,4.5472 l 21.32111,3.76064 45.01561,-4.30126 c 21.87115,-2.0898 39.84101,-5.00549 39.38971,-4.19493 l -1.56754,2.81538 c -2.19285,3.93847 -3.08691,5.63823 -9.75153,9.52986 -7.60694,4.44187 -14.52443,8.02861 -29.36965,11.86042 -19.28427,4.97763 -30.10835,6.86412 -45.05812,8.59281 -23.26905,2.69068 -44.65489,5.03853 -65.53801,2.16648 -8.0881,-1.11237 -13.66709,-2.81368 -31.18376,-7.1752 -23.92781,-5.95786 -28.13853,-7.1048 -42.12176,-7.15004 -10.63873,-0.0344 -12.66005,-0.8074 -17.05431,0.32553 -6.97149,1.79731 -13.9446,2.46251 -25.40913,7.43531 -5.5607,2.41197 -16.28616,7.79387 -23.37604,10.58477 -30.12988,11.86052 -52.7517,20.55144 -71.27823,29.06595 -15.80114,7.26197 -19.74284,8.40143 -31.96953,12.7969 -14.74308,5.3001 -17.94112,6.60711 -24.71458,10.10052 -8.28547,4.27322 -14.60758,6.76701 -21.45623,13.76725 -7.2782,7.43928 -11.25391,12.78112 -21.76195,29.23978 -13.38612,20.96656 -21.10306,30.58264 -30.25707,37.70341 -8.73871,6.79771 -14.65632,8.14954 -35.75042,8.16685 -8.06827,0.006 -16.58096,0.48708 -32.10035,1.81175 -31.480641,2.68706 -45.479703,3.27807 -59.539579,2.51358 z"
         id="path1062" /><path
         style="fill:#7bf2ec;fill-opacity:1;stroke:none;stroke-width:0.125;stroke-dasharray:none;stroke-opacity:1"
         d="m 466.33299,325.29737 c -1.03935,-0.17282 -2.49323,-0.69857 -3.52049,-1.27307 -1.27079,-0.71069 -2.7928,-2.2349 -3.40562,-3.41053 l -0.46197,-0.88622 1.09005,-0.73878 c 3.33641,-2.26124 4.65232,-4.28859 4.65261,-7.16798 l 7e-5,-0.69579 2.86547,-4.29857 2.86548,-4.29856 0.93099,1.86106 c 2.06336,4.12472 3.42178,7.7202 3.96177,10.48607 0.33082,1.69449 0.3618,3.89585 0.0704,5 -0.55613,2.10692 -1.95436,3.88966 -3.70811,4.72783 -1.55638,0.74384 -3.51344,0.99835 -5.34061,0.69454 z"
         id="path1066" /><path
         style="fill:#d9abb0;fill-opacity:1;stroke-width:0.0625"
         d="m 407.61474,450.46454 c -0.31502,-0.0662 -0.94662,-0.25039 -1.40356,-0.40935 -4.65973,-1.62108 -7.71535,-4.57327 -8.5638,-8.27394 -0.19522,-0.85147 -0.22362,-2.23024 -0.065,-3.15625 0.38797,-2.26516 1.57489,-4.39707 3.5447,-6.36688 2.36674,-2.36675 5.82635,-5.10946 9.09372,-7.20934 6.60585,-4.24546 13.65558,-7.15537 19.93964,-8.23046 L 431,416.67468 l 0.0165,0.25641 c 0.0337,0.52494 0.95119,26.49695 0.9364,26.50891 -0.008,0.007 -1.12633,0.0443 -2.48414,0.0833 -3.91009,0.11214 -5.82623,0.35651 -8.20093,1.04589 -2.26275,0.65687 -3.7141,1.42419 -6.27265,3.31629 -2.25181,1.66525 -3.46377,2.31556 -4.87097,2.61364 -0.61907,0.13113 -1.79814,0.1149 -2.50946,-0.0345 z"
         id="path2" /><path
         style="fill:#ea858f;fill-opacity:1;stroke-width:0.0625"
         d="m 421.84375,455.67975 c -1.6615,-0.15485 -3.54964,-0.61557 -5.26946,-1.28578 l -0.80292,-0.31289 0.14556,-0.15671 c 0.28496,-0.30677 1.40713,-1.17413 2.14059,-1.65454 2.15076,-1.4087 4.6849,-2.28497 7.72373,-2.67078 1.76045,-0.2235 5.1875,-0.36326 5.1875,-0.21155 0,0.0413 -0.0994,0.35066 -0.22096,0.68752 -1.11927,3.10242 -3.19657,4.96127 -6.13069,5.48599 -0.54713,0.0978 -2.2262,0.16974 -2.77335,0.11874 z"
         id="path3" /></g><path
       style="display:inline;fill:#0b0b0b;stroke:none;stroke-width:2.2;stroke-dasharray:none;stroke-opacity:1"
       d="m 222.72,150.72 c -6.11581,-15.58599 -22.7873,-18.3099 -37.44,-18.23924 -31.94471,0.15405 -66.47879,32.325 -82.84889,57.59924 -15.389207,23.75983 -22.327403,51.10635 5.08889,69.04372 10.88332,7.12051 22.80384,11.60293 32.64,20.40295 2.62256,2.3463 8.33946,6.65587 7.34074,10.78222 -1.16956,4.83223 -7.36576,4.44343 -11.18074,4.96444 -11.00093,1.50241 -21.64031,3.42302 -31.68,8.44222 -18.611432,9.30454 -31.647787,21.32019 -47.039999,34.89038 -9.884055,8.71407 -20.902775,17.61739 -26.372593,30.03408 -3.307207,7.50747 -11.132899,26.63475 -4.08,33.29481 3.489541,3.29517 7.995849,1.41639 12.212593,1.99037 9.918669,1.35015 19.801132,3.31919 29.76,4.62741 13.103196,1.72128 27.108135,0.40741 40.319999,0.40741 -7.44159,12.75214 -5.63211,23.52161 -6.00889,37.44 -0.38158,14.09607 -2.46122,26.20834 0.87704,40.32 8.09186,34.20633 38.3756,62.71125 74.25185,64.28221 15.82124,0.69281 31.45631,-2.81168 45.12,-10.95704 6.08934,-3.63005 15.27312,-15.40664 22.99779,-12.42515 9.32282,3.5983 2.24094,19.99137 3.51407,27.25998 2.94393,16.80773 15.65707,28.03383 32.04814,31.99037 18.26289,4.40836 39.32397,7.50035 56.64001,-1.03629 14.22922,-7.0149 21.48457,-22.45793 10.56,-35.75408 9.78114,1.89685 20.73298,5.81197 30.72,5.54742 6.71299,-0.17783 11.05787,-5.52082 17.28,-6.59185 6.05455,-1.04221 17.02424,6.52394 22.07926,9.61406 7.08891,4.33342 17.81699,24.18017 26.88074,17.35037 9.67532,7.66394 21.43245,-16.5808 26.55926,-23.04 4.97217,-6.26438 13.46024,-19.11709 21.44074,-21.3385 7.24547,-2.01685 17.09221,1.74985 23.69484,-2.92892 3.70934,-2.62852 1.24149,-8.55955 3.75405,-12.18891 4.66212,-6.7343 14.11752,-11.38137 20.55111,-16.34367 6.38994,12.2076 30.87656,17.13762 43.2,12.14144 21.7449,-8.81566 45.56402,-40.27596 43.0326,-64.94144 -2.22,-21.6312 -29.15233,-30.6085 -47.8326,-32.47629 -6.44596,-0.64453 -19.54025,1.50764 -24.41848,-3.53704 -4.82314,-4.98774 -4.30248,-17.02369 -5.06742,-23.50667 -1.37268,-11.63341 1.64654,-23.71401 0.52295,-35.52 -1.27119,-13.35704 -7.47141,-27.4169 -7.51705,-40.32 13.91789,12.19403 19.55801,30.43084 23.77406,48 2.62735,10.94856 4.64344,25.95222 15.58594,31.68 v 0.96 c -3.9157,-0.29543 -7.19133,-1.44214 -8.64,2.88 5.56459,2.07413 12.04728,1.54716 17.28,3.78 4.88777,2.08564 8.58703,6.40693 13.44,8.65555 7.77867,3.60425 18.82699,2.40879 26.88,0.27853 6.00621,-1.58883 14.58346,-4.16359 18.71039,-9.07852 6.70037,-7.9797 1.24588,-16.7966 -8.15039,-17.07556 7.62984,11.35467 1.8832,15.30178 -9.6,19.32961 -11.93947,4.18787 -23.18842,4.03075 -32.64,-4.92961 23.04023,-6.65028 30.15117,-31.79341 23.04,-52.8 26.01481,-7.50882 19.06957,-30.94659 10.56,-48.96001 24.509,-11.45654 44.115,-29.20256 61.12518,-49.92 4.85824,-5.91709 13.54951,-22.54371 3.7422,-28.59035 -7.03658,-4.33834 -27.10207,3.35572 -35.10738,4.31625 -18.21445,2.18543 -37.32047,4.54975 -55.68,4.10004 -9.63316,-0.23596 -19.16086,-2.66701 -28.8,-2.86594 5.50125,-22.94736 30.71262,-37.43783 30.71262,-62.4 0,-43.94267 -57.57996,-55.63875 -90.23262,-43.13777 -12.7476,4.88039 -22.22672,14.91129 -33.6,22.01777 -10.15738,-26.26301 -44.60511,-40.831463 -70.08,-45.888163 -34.55262,-6.858574 -71.45655,-0.319453 -104.64,9.677053 -13.43828,4.04824 -27.84279,7.89187 -40.32001,14.43855 -18.05765,9.47467 -32.52476,22.67719 -48.96,34.25256 m 264.96001,6.72 c -19.48632,0 -35.29928,-13.07525 -55.68,-10.1489 -6.01705,0.86396 -12.6929,1.9865 -17.17925,6.41332 -5.33496,5.26418 -5.68708,12.51961 -13.54444,14.84443 -43.76151,12.94793 -87.85993,23.78602 -129.59632,42.94746 -21.1543,9.71209 -42.41546,20.01698 -62.4,31.96371 -6.19907,3.70582 -11.07846,9.37175 -17.28,12.85998 0,-36.30457 12.01527,-78.05894 38.56297,-104.47629 32.52048,-32.3608 83.06471,-48.42047 127.51704,-54.19406 49.21479,-6.392168 115.00342,3.51715 129.6,59.79035 m 85.44,62.4 -17.28,-3.84 c 1.53299,-18.76687 7.22648,-33.90357 0.62889,-52.8 -3.12873,-8.96103 -7.36043,-16.84084 -17.90889,-17.15554 -16.07068,-0.47948 -29.52082,12.21609 -45.12,12.35554 -0.7326,-3.77765 -3.77104,-10.57711 -2.49258,-14.22293 2.92582,-8.34363 21.72311,-17.91117 29.37258,-21.50672 29.16228,-13.70748 83.66531,-2.86066 84.42814,36.68965 0.41426,21.47731 -22.73812,41.8053 -31.62814,60.48 M 167.04,292.8 h -12.48 c -2.90462,-33.01904 -59.577662,-29.33484 -60.465921,-63.36 -0.297613,-11.40029 4.284836,-20.01843 9.720001,-29.76 12.94464,-23.20095 37.92643,-46.33769 62.26592,-57.30076 15.17575,-6.83555 42.98789,-7.91725 51.03038,10.26445 2.24896,5.08424 -1.27311,8.38237 -3.90445,12.47631 -5.05506,7.86481 -9.64594,16.26867 -13.09408,24.96 -5.16518,13.0193 -12.35674,28.26745 -13.70888,42.24 -0.90123,9.31301 3.266,23.16545 0.21407,31.67927 C 182.84561,274.52025 168.91976,280.59871 167.04,292.8 M 512.64001,158.4 c 8.67017,-2.3666 23.68752,-10.9831 32.37627,-4.85924 4.94654,3.48633 7.24066,13.63852 8.17928,19.25924 2.67808,16.03723 -0.26848,31.57571 -4.63184,47.04 -1.72049,6.09762 -3.59854,13.5228 -8.5326,17.92073 -4.63851,4.13449 -20.83916,-2.45942 -23.43849,-7.56516 -2.39204,-4.69852 0.84738,-15.50982 0.84738,-20.91557 0,-17.5173 0.58558,-34.07203 -4.8,-50.88 m -79.68,-5.4822 c 12.56906,-1.63342 36.48419,0.85248 41.50221,15.12 2.52991,7.19314 -0.22292,18.40957 -1.02295,25.8822 -0.51074,4.77047 0.48213,13.84998 -2.10592,17.86219 -2.58671,4.0101 -10.29589,5.11154 -14.37334,7.20299 -12.37987,6.35004 -27.19061,19.32996 -41.27927,20.8326 -11.83157,1.26193 -10.56073,-18.01875 -10.56073,-25.73778 0,-21.47086 2.07422,-57.81386 27.84,-61.1622 m 78.72,64.0422 c -7.66459,-0.74191 -15.31272,-1.54084 -23.04,-1.8822 -2.79425,-0.12346 -7.55356,0.78597 -9.57334,-1.71041 -1.94672,-2.4061 -1.09553,-7.95071 -0.82368,-10.80739 0.82303,-8.64867 1.69131,-17.28422 2.55477,-25.92 0.32751,-3.27568 -0.2434,-8.25375 2.07112,-10.94074 3.19444,-3.70852 22.95709,-2.78303 26.06742,0.87404 2.50324,2.94323 1.86088,8.3676 2.33631,11.9867 1.64033,12.48703 0.4074,25.8102 0.4074,38.4 m -106.56,-43.2 -5.75631,34.56 -0.99035,18.50145 -16.29334,4.89779 -44.16,12.17186 -81.60001,31.02445 -46.08,26.22891 -21.12,14.69555 c -1.45763,-11.5336 -5.82898,-30.81138 -1.06073,-41.8326 9.53198,-22.03202 33.80828,-31.92399 53.86073,-41.92442 49.74302,-24.80748 107.58165,-50.82732 163.20001,-58.32299 m 148.8,48 51.84,8.60221 82.56,-7.64221 c -7.26644,14.86969 -38.03889,21.1312 -52.8,24.83854 -33.14145,8.32371 -71.82182,10.83264 -105.6,5.61776 -23.11986,-3.56938 -44.49788,-12.29604 -68.16,-12.92739 -21.14324,-0.56414 -36.86614,9.09993 -55.68,16.25555 -31.04409,11.80722 -60.96203,23.4694 -91.2,37.35184 -19.81621,9.09774 -39.75674,11.72441 -57.60001,25.34666 -26.36415,20.12746 -34.57883,54.97826 -62.4,73.88889 -11.08888,7.53736 -29.42276,4.51635 -42.24,5.39408 -28.83915,1.97497 -56.406129,5.96754 -85.439999,3.83927 -10.29594,-0.75471 -24.958477,-1.21954 -34.414076,-5.46369 -4.971208,-2.23134 -0.783388,-10.17035 0.258519,-13.8215 4.311508,-15.10875 11.553812,-25.60626 23.595557,-35.92372 8.598076,-7.36687 15.67333,-16.54482 24.96,-23.04887 C 112.11462,302.69611 145.00814,298.35211 181.44,297.6 l 2.88,28.80001 c 24.04253,-16.22189 47.00082,-32.52428 72.96,-45.83113 43.94573,-22.52686 95.65755,-37.91382 144.00001,-47.28888 2.74611,9.53245 8.22143,14.408 18.24369,11.59254 12.37107,-3.47525 25.28086,-12.40951 36.47631,-18.71994 4.99371,-2.81478 12.22233,-7.75887 18.24,-7.25701 14.7077,1.2266 31.04344,12.91113 44.16,19.42219 5.48818,2.72431 12.80689,7.52877 19.19924,7.05627 8.98998,-0.66446 14.62254,-16.27729 16.32076,-23.61405 m -43.2,0 v 4.8 l -13.44,-3.84 13.44,-0.96 m 184.32,0 -0.96,0.96 0.96,-0.96 m 2.88,6.72 c -7.20978,21.13896 -30.51586,39.76755 -48.96,50.88 -4.38973,2.64478 -13.84945,11.50082 -19.2,10.13186 -5.55533,-1.42137 -10.60312,-9.38235 -15.36,-12.67778 -13.40291,-9.28518 -26.76527,-14.73229 -43.2,-14.73408 l 19.2,-2.08297 43.2,-6.05332 37.44,-12.27185 26.88,-13.19186 m -77.76,106.56001 c 13.42453,-11.83076 4.07906,-28.37798 -7.68369,-37.75779 -25.12201,-20.0327 -55.03289,-20.01111 -84.47631,-27.6711 -7.9626,-2.07156 -30.35444,-12.64588 -36.48,-6.57112 l -24.96,-7.68 c 3.35894,-9.55529 -9.31005,-7.68 -15.36,-7.68 14.35567,-6.03755 39.2806,1.26516 52.8,7.22743 4.1349,1.82355 7.3998,6.33556 11.6059,7.56369 10.88654,3.17871 24.17056,1.80345 35.4341,2.57481 32.81807,2.24742 60.99352,8.4871 80.85627,37.35407 4.78559,6.95502 7.59293,17.98773 3.5274,25.90594 -2.37023,4.61637 -10.94478,12.62983 -15.26367,6.73407 m -96.96,-3.84 c -1.17281,-7.31807 3.07834,-13.09521 1.44662,-20.16 -4.47785,-19.38739 -28.60529,-30.54458 -44.64662,-39.4926 -6.90047,-3.84914 -14.62486,-7.11287 -22.08,-9.72223 -1.81365,-0.6348 -7.1722,-3.22793 -8.30816,-0.38962 -1.27095,3.17561 4.42635,4.8852 6.38816,5.61334 8.59664,3.19075 17.03428,6.72076 24.96,11.3511 -2.18631,6.27428 3.4713,10.70702 5.88222,16.32 3.3187,7.72638 3.71778,15.72112 3.71778,24.00001 7.13431,1.16378 11.67521,14.94389 14.39707,21.12 12.48767,28.33541 -4.69266,57.48465 -16.93187,83.52 -9.07412,19.30251 -24.29505,33.55333 -40.6652,46.57406 -5.35363,4.25824 -9.73237,10.59079 -16.32,13.09632 -11.57426,4.40212 -31.10458,0.26124 -43.2,-0.94814 -27.24932,-2.72455 -62.03825,-8.03768 -82.3111,-28.27631 -10.68041,-10.66237 -17.56286,-28.21249 -23.28891,-41.96593 5.77571,2.01193 8.56049,-2.27244 13.44,-4.8 4.42208,7.79666 12.50699,-3.90065 18.24001,-4.8 v 3.84 l 8.94073,-7.93184 9.29927,-4.87778 22.08,-18.87038 c 4.62662,6.26721 12.2264,10.25768 20.16,9.31851 2.17564,-0.25755 10.81192,-1.28707 9.26815,-5.18815 -1.2029,-3.0397 -7.06383,-0.8308 -9.26815,-0.57185 -5.67654,0.66686 -11.26099,-1.06485 -14.98518,-5.52073 -15.72577,-18.81539 -13.319,-48.51346 -12.85482,-70.99779 h 0.96 c 0,11.34056 -4.7541,37.62047 12.48,38.47706 6.2591,0.3111 12.1959,-3.61284 18.24,-4.87705 l 0.96,5.76 c -1.85447,-0.35915 -8.58085,-2.4593 -7.20296,1.87628 2.87716,9.05297 18.4686,-1.47284 10.62665,-10.29703 -7.72591,-8.69361 -17.59547,6.07556 -26.08518,0.56889 -4.13045,-2.67914 -3.25825,-9.0685 -3.25851,-13.26814 -6.5e-4,-9.97817 -3.21794,-34.61766 6.72,-40.32001 0,14.60139 -3.15264,43.54468 19.2,42.94963 6.99946,-0.18632 13.65328,-3.3084 20.16,-5.50962 -0.76064,1.33684 -1.52039,2.59306 -2.35556,3.88294 -1.05026,1.62206 -4.23996,10.20879 1.0548,6.91559 5.40768,-3.36343 8.41489,-10.77908 13.78076,-14.63853 2.7428,20.35186 14.86277,40.07698 30.72,52.8 l -1.92,2.88 c 18.43052,3.77159 45.93433,-7.48603 47.04,-28.8 l -7.68,4.8 h -0.96 c 1.78139,-13.22889 8.01096,-28.95692 6.43851,-42.24001 -3.7628,-31.7857 -41.67422,-39.36 -67.87851,-39.36 8.02277,-12.65988 21.66797,-8.87833 33.6,-5.88149 25.14463,6.31532 62.12678,14.67979 79.52004,35.65556 2.41916,2.91744 1.10959,5.19882 2.33625,8.26593 1.0831,2.70827 3.92344,4.13831 4.87705,7.09483 3.58599,11.11808 -3.43242,22.03228 -14.73334,23.02518 M 399.36001,266.88 c -2.02585,7.28921 -8.92758,13.44589 -12.60961,20.16 -1.14914,2.09543 -3.88787,6.23291 -1.86446,8.55261 2.34443,2.68773 4.46693,-0.92815 5.34443,-2.81185 3.49898,-7.51108 8.27994,-16.5378 14.92743,-21.75557 3.59719,-2.82352 8.13929,-2.22519 12.44221,-2.22519 9.79673,0 24.02812,-0.39252 32.64,4.8 -13.45597,6.29435 -27.61585,11.36031 -38.38594,22.09483 -4.71847,4.70288 -9.41356,9.50517 -6.73406,16.30518 l -2.88,0.96 c -6.04035,-4.37549 -17.45139,4.12221 -24.96,3.32815 -14.76944,-1.5619 -14.39877,-29.83644 -9.6,-39.80816 h 0.96 c 0,4.34508 -1.40784,24.45472 8.44148,19.95557 3.53602,-1.61522 0.57683,-4.26967 -1.72148,-4.59557 l 0.96,-18.24 23.04,-6.72 m 108.48,2.88 -0.96,0.96 0.96,-0.96 m 15.36,4.8 -0.96,2.88 -13.44,-5.76 14.4,2.88 m 94.08,55.68001 c -8.47723,-13.51448 -21.49881,-27.04325 -36.48,-33.16591 -12.88272,-5.26506 -35.97182,-8.96362 -45.12,-19.6341 23.64791,0.0651 53.03414,8.62972 72,22.80964 8.07363,6.03627 19.96682,20.84192 9.6,29.99037 M 464.64001,279.36 v 0.96 c -13.67168,0.58711 -25.05759,6.37164 -37.44,11.52 7.18705,-8.38303 26.63935,-15.67251 37.44,-12.48 m -283.20001,0 v 12.48 h -6.72 l 6.72,-12.48 m 305.28001,1.92 13.44,10.56 c -5.21262,-1.91935 -12.68939,-4.26363 -13.44,-10.56 m 124.8,51.84001 c -4.46848,0.83006 -12.02543,3.14598 -16.23334,0.92964 -4.01725,-2.11593 -6.59561,-7.31847 -9.72445,-10.51558 -5.49598,-5.61589 -12.02244,-10.98563 -18.20221,-15.83701 -13.30828,-10.44756 -29.89061,-12.77971 -40.32,-26.41706 7.00488,1.35466 13.37226,6.43416 20.16,8.94592 21.9085,8.10715 56.68605,17.19197 64.32,42.89409 m -131.52,-24.96 h -0.96 l -14.4,-22.08001 c 12.32165,0.26388 15.13854,11.35339 15.36,22.08001 M 344.64001,288 c -5.04689,18.87882 -6.46339,37.37828 -2.02817,56.64001 2.65456,11.52855 10.95305,22.91461 -0.85183,31.68 -2.14779,-2.37428 -3.63323,-3.10105 -6.72074,-1.48073 -7.2694,3.81498 -13.33169,8.78482 -21.11926,11.84444 -5.603,2.20134 -12.11297,2.30997 -15.36001,7.87629 14.14946,4.34405 29.98562,-9.88615 41.28001,-16.32 -11.59108,16.11339 -38.54605,23.60666 -57.60001,24 l -3.84,3.84 c -3.58787,-10.71399 13.014,-29.67241 17.22223,-40.31927 1.79865,-4.55066 9.7227,-10.12113 3.89777,-13.44073 l -0.96,-15.36 h -1.92 c 5.35257,-18.58752 17.66716,-38.0282 36.48001,-44.16001 -4.62545,16.18017 -7.07259,32.4777 -14.31853,48.00001 -0.7471,1.60045 -11.63716,14.71573 -5.74298,13.79408 12.13087,-1.89686 13.12026,-22.56396 16.60743,-31.03187 1.26545,-3.07283 6.04905,-4.71674 6.55629,-7.70739 0.40761,-2.40316 -2.49577,-2.63607 -4.06221,-2.89482 L 342.72001,288 h 1.92 m 107.52,0 12.48,5.76 -4.8,1.92 c -5.34446,-3.80334 -19.78075,12.68637 -21.45703,18.24001 -1.21415,4.02257 0.39152,8.03522 -3.50297,10.56 V 294.72 c 4.27966,1.9972 15.26033,4.50305 10.56,-3.84 l 6.72,-2.88 m -25.92,3.84 -1.92,1.92 1.92,-1.92 m -2.88,1.92 v 0.96 l -9.6,6.72 9.6,-7.68 m 71.04,2.88 19.2,25.92001 c -11.48807,-2.22478 -5.251,6.63981 2.88,4.8 4.25672,13.31223 8.52504,27.1725 8.20301,41.28 -0.33762,14.79111 -6.31389,29.46055 -5.23635,44.16 0.52465,7.15734 3.95689,13.63634 6.63334,20.16 -9.59613,-0.75736 -16.20445,-3.89959 -17.28,-14.4 8.06291,-1.25092 7.27377,-7.01051 -0.96,-5.76 0,-6.86256 -0.8669,-14.39335 0.65262,-21.12 3.59308,-15.90619 12.04675,-31.97048 6.04517,-48.68593 -1.49484,-4.16332 -5.69765,-7.8854 -7.92592,-11.79407 -2.49849,-4.3827 -5.21847,-17.48784 -10.29187,-18.24 l -1.92,-16.32001 m 14.4,0 c 7.80234,4.60823 10.48681,12.39053 10.56,21.12001 -6.38367,-5.16352 -10.86287,-12.75083 -10.56,-21.12001 m -48,0.96 1.92,12.48001 c -9.05836,-0.77154 -9.16207,-8.05137 -1.92,-12.48001 m -31.68,2.88 -5.76,8.64001 c 0.0168,-4.76168 -0.0613,-9.14403 5.76,-8.64001 m 114.24,-0.96 c 17.94475,11.83656 37.31947,21.64817 48.25775,41.28001 9.08549,16.30649 6.07465,29.98353 -13.69775,34.56 -1.11645,-4.8864 0.0238,-9.83743 -1.05111,-14.4 -2.70211,-11.46929 -9.5935,-27.31433 -15.65256,-37.44 -3.7435,-6.25597 -7.31479,-15.85351 -15.93633,-12.48 l -1.92,-11.52001 m -72.96,2.88 c 2.3782,4.51336 6.6813,13.01757 4.84963,18.19779 -2.71524,7.67909 -14.01323,5.54856 -16.36963,-0.91778 3.65121,-2.37958 5.92717,-4.07719 5.76,-8.64 l 5.76,-8.64001 m -163.2,1.92001 c -10.16104,21.47912 -22.97151,41.93519 -33.35186,63.36 -5.25352,10.84309 -11.2466,24.43772 -23.28815,29.29555 -12.91287,5.20934 -11.88042,-10.94405 -4.8,-16.81555 1.36867,4.46323 4.39134,4.4632 5.76,0 9.95201,1.26099 15.43175,-12.63704 18.90296,-20.16 8.84564,-19.1708 12.37849,-49.89818 36.77705,-55.68 m 139.2,36.48 c 1.3551,-3.29239 4.27397,-6.81973 3.08519,-10.56 -1.87632,-5.90341 -8.23383,-9.11664 -5.2526,-16.26373 5.57859,-13.3739 10.45333,10.73995 11.50962,12.30519 1.84395,2.7324 7.48005,2.76809 8.03482,6.0237 1.59299,9.34861 -11.64812,11.65588 -17.37703,8.49484 m -160.32001,-28.8 c -2.0857,6.83408 -7.05723,11.10149 -10.3074,17.28 -6.15776,11.70577 -7.97361,24.81949 -14.65333,36.48 -3.98511,6.95663 -7.04467,12.22834 -15.35927,8.64 6.39191,-22.18799 18.25881,-51.96364 40.32,-62.4 m 140.16001,3.84 c 5.56383,11.89699 9.20455,28.70168 21.39407,35.93036 12.70588,7.53489 24.55875,-8.04788 21.80593,-19.61036 l 6.72,-2.88 c -0.8098,6.27049 -1.61698,13.22015 -3.63777,19.2 -3.34426,9.89619 -15.30577,18.31245 -26.12223,12.86666 -9.19084,-4.62733 -16.39837,-16.41501 -20.86075,-25.34666 -3.02075,-6.04618 -6.71441,-16.1681 0.70075,-20.16 m -158.40001,2.88 c -18.65844,26.80713 -25.9721,61.50363 -49.12667,85.35038 -8.8927,9.15852 -29.44381,16.6241 -35.35333,1.04962 42.30449,-12.27106 48.40404,-66.29122 84.48,-86.4 m 274.56001,8.64 c 4.01467,31.60066 0.9109,63.2322 9.6,94.08 -6.06979,-2.05342 -11.99496,-4.62202 -18.24,-6.14666 -2.33725,-0.57059 -5.9894,-0.18777 -7.65334,-2.24593 -4.20545,-5.20178 1.50492,-20.3388 2.6615,-26.16741 3.41649,-17.21748 1.05692,-33.21616 -3.64816,-49.92 6.6491,-0.99668 11.47154,-4.12928 15.36,-9.6 h 1.92 m -102.72,0.96 c 9.28368,3.07675 -5.8938,11.33753 0,0 m 175.68,9.6 c 5.93818,11.26913 8.14125,30.34195 0.3474,41.28 -8.41166,11.80508 -27.15539,15.76963 -34.9074,0.96 22.18342,-5.13454 24.88313,-21.07413 17.28,-39.36 l 17.28,-2.88 m -321.60001,7.68 c -0.059,17.24929 -9.50859,32.89605 -18.42518,47.03926 -3.04869,4.83575 -15.2654,10.09527 -9.41482,15.36074 -4.90933,14.51176 -7.36394,27.21457 -2.54964,42.24 0.73271,2.28679 4.53676,15.44165 8.66373,12.55558 1.85393,-1.2965 0.47604,-4.29463 -0.15185,-5.83558 -2.45423,-6.02318 -4.4816,-11.69798 -5.00224,-18.24 l 6.72,0.96 14.4,31.68 -20.07407,-3.00372 -17.36593,-8.51628 c -3.95226,-9.68555 -6.59691,-29.33672 3.84,-36.48 -1.41714,-9.71936 7.51723,-19.89021 11.99409,-27.84 8.78288,-15.59625 18.50554,-33.33788 25.44591,-49.92 h 1.92 m 97.53926,41.32444 c -3.26991,2.39848 -1.51863,15.21067 3.52741,11.43111 4.51248,-3.37992 3.03006,-16.24098 -3.52741,-11.43111 m 193.34075,5.71556 -0.96,0.96 0.96,-0.96 m -350.40001,0.96 c 2.35216,11.65013 12.27859,10.55587 21.12,7.68 -1.67258,5.63056 -13.77917,15.55971 -20.14592,13.6311 -4.2318,-1.28188 -6.90748,-6.61834 -9.61408,-9.7911 v -0.96 l 8.64,-10.56 m 44.16,7.68 v 0.96 h 2.88 l -2.88,-0.96 m -74.88,18.24 c -3.50272,23.66499 26.60798,20.12138 39.36,13.44 -2.87893,15.27996 -1.59591,33.4483 16.32,38.4 -3.10104,16.64472 -6.77214,31.46074 -17.48296,45.12 -40.23367,51.30914 -120.45587,27.67137 -132.46444,-34.56 -3.91029,-20.26409 -0.78523,-41.65108 9.80148,-59.52 3.07109,-5.18359 7.55982,-13.30225 13.44,-15.60742 8.48666,-3.32695 20.73379,-2.27572 29.74592,-2.67038 3.75126,-0.16426 7.8496,-1.63757 11.47852,-0.0978 5.84171,2.47875 6.90164,10.29987 11.66149,14.11925 4.96854,3.98683 12.38998,2.10299 18.13999,1.37631 m 298.56001,-13.44 c 0,10.33881 1.34191,17.93789 6.72,26.88 l -21.12,3.84 14.4,-30.72 m -380.16001,1.92 -12.48,21.12 c -1.83909,-7.78322 4.24962,-19.74076 12.48,-21.12 m 150.72,0 4.8,7.68 -4.8,-7.68 m 11.52,0 -2.88,2.88 -0.96,-2.88 h 3.84 m 150.70076,0.63925 c -12.2352,0.74757 -29.91762,11.17638 -38.34296,19.55927 -2.66142,2.648 -7.16394,6.67937 -7.96002,10.50741 -0.7256,3.48903 3.24636,6.35119 5.2311,8.6911 6.4474,7.60116 19.87046,16.14143 30.53113,14.99259 17.61348,-1.89812 13.80137,-26.79979 12.64298,-39.02962 -0.39,-4.1173 4.4482,-15.12097 -2.10223,-14.72075 M 221.76,408.96001 c 1.63836,5.53799 11.07085,13.36169 17.28,12.0222 4.08834,-0.88195 7.24418,-4.896 10.56,-7.2222 -2.03923,11.84291 -23.54774,26.51549 -35.2074,17.66074 -4.97878,-3.78106 -4.33099,-9.33355 -5.1126,-14.78074 l 12.48,-7.68 m 48,1.92 1.92,5.76 h -3.84 l 1.92,-5.76 m 161.28001,5.76 0.96,26.88 c -4.65533,0.003 -9.11795,0.0703 -13.42594,2.10149 -3.98651,1.8796 -6.66489,6.18574 -11.5348,4.74 -9.68589,-2.87549 -12.85995,-11.42493 -5.75481,-18.32297 7.56521,-7.34469 19.25159,-13.84722 29.75555,-15.39852 m 96.96,2.88 c 8.94685,2.86081 19.55185,4.50389 26.71336,11.00888 16.93887,15.38605 13.33547,44.48517 -4.63336,57.15112 6.84562,-16.69058 3.0934,-33.4798 -6.70817,-48.75853 -4.43355,-6.91104 -17.67328,-8.27481 -15.37183,-19.40147 m 18.24,75.84 c 21.23291,-4.19549 27.38168,-31.70505 24,-49.92 5.95629,0.4701 11.51766,1.31039 17.27109,-1.09852 1.57828,-0.66082 5.33713,-2.8219 3.23854,-4.95703 -2.46938,-2.51238 -11.1992,1.37657 -14.74963,0.7926 -9.80713,-1.61312 -15.28055,-11.01993 -18.24,-19.69705 9.27832,-1.47674 20.63432,-0.31585 29.76,1.72148 11.67012,2.60537 27.48264,6.74039 33.29854,18.43852 3.3648,6.76799 1.01132,15.33243 -1.05557,22.08 -5.44828,17.78619 -17.67451,35.88398 -35.12297,43.75998 -11.00836,4.96904 -33.00123,-0.0405 -38.4,-11.11998 m -278.40001,-69.12 -1.92,5.76 1.92,-5.76 m 11.52,3.84 c 11.36432,24.34054 25.35314,47.64844 48.96001,61.44 -8.57866,8.71178 -14.48458,1.38222 -21.20593,-5.76369 -10.26484,-10.91321 -16.98891,-23.75725 -23.24001,-37.52224 -2.32453,-5.11863 -6.53532,-12.50385 -4.51407,-18.15407 m 260.16001,16.32 c -4.38598,-0.93824 -6.57885,0.2971 -10.56,2.03631 -4.33037,1.89178 -10.52918,2.25755 -13.13485,6.80812 -7.37062,12.8722 12.5328,27.07084 23.69485,25.71557 0,4.14129 0.8949,9.58462 -1.13186,13.3541 -6.96726,12.95789 -22.65609,13.07871 -24.78814,29.8459 l -14.4,1.92 c 2.55205,-5.48016 7.49449,-9.32602 10.76297,-14.4 8.73785,-13.56463 8.52088,-26.53105 0.3222,-40.32 -2.10041,-3.53259 -4.55976,-8.35653 -8.29482,-10.38815 -7.70912,-4.19326 -19.86472,-1.3623 -28.71035,-4.97185 7.14644,-16.03834 30.20308,-17.52384 46.08,-16.90518 8.025,0.31272 16.8157,-2.30095 20.16,7.30518 m -108.48,2.88 c -2.16774,7.6318 -9.05233,7.46165 -15.36,4.8 4.48429,-4.15899 9.45044,-4.78371 15.36,-4.8 m 104.64,25.92 c -5.52088,-1.52224 -20.24983,-9.56151 -14.35922,-17.56073 3.42762,-4.65457 6.86309,2.08782 10.2992,1.63334 3.6518,-0.48302 0.41648,-6.93879 4.22596,-6.91483 11.59687,0.0729 1.87523,18.96281 -0.16594,22.84222 M 216,477.12001 c -3.13418,-8.02415 5.6669,-11.26535 10.50296,-16.3578 1.2126,-1.27687 5.20973,-5.79082 1.65334,-6.92443 -5.65854,-1.80369 -18.9687,13.08308 -23.6763,16.22151 -15.63164,10.42119 -32.53495,12.82072 -50.88,12.82072 -3.25391,0 -19.4909,-2.08342 -19.55332,2.0274 -0.0892,5.87736 9.07793,6.40222 12.57331,8.95928 15.83641,11.58515 50.79024,8.66502 65.53631,-3.73187 6.57926,-5.5311 10.31871,-13.13118 15.61407,-19.73481 1.64359,-2.04964 5.32517,-5.34141 4.66297,-8.33039 -0.79061,-3.5686 -5.39709,-0.43597 -6.74372,0.79336 -4.10957,3.75158 -7.47886,9.1991 -9.68962,14.25703 m 87.36001,-17.28 23.04,13.44 v 0.96 c -10.41443,3.60135 -20.8672,-2.16114 -23.04,-14.4 m 145.92,45.12 c 1.49021,-11.01252 7.61282,-22.27181 11.58222,-32.64 1.27234,-3.32335 3.17687,-9.5451 6.86221,-10.89926 4.22068,-1.55089 10.06535,2.80102 14.19557,3.68221 6.29513,1.34305 14.11049,0.76072 19.79631,4.36298 8.06566,5.10999 10.44697,20.27056 8.49556,28.77407 -4.09283,17.835 -23.32722,29.25182 -34.45558,42.24 -6.33674,7.39576 -13.10951,14.58439 -18.04664,23.0393 -1.18597,2.03097 -2.93256,7.33318 -6.22298,6.27773 -6.09777,-1.95592 3.20297,-15.97143 4.78295,-18.75703 8.93792,-15.75815 16.59055,-32.95494 22.94815,-49.92 2.12361,-5.66684 1.31672,-15.03059 -6.89777,-15.0126 -11.16589,0.0244 -11.89333,16.83346 -23.04,18.8526 m 98.88,-41.28 c 1.63359,6.86179 0.50683,12.68912 -1.92,19.2 h -0.96 c -1.00295,-7.44832 -2.01311,-12.73465 2.88,-19.2 M 182.4,469.86223 c -3.05625,0.45607 -9.48096,0.49442 -11.88221,2.47925 -4.83439,3.99604 5.14929,4.74794 7.08221,4.50073 3.03314,-0.38789 7.71847,-0.71293 10.2363,-2.58665 4.95128,-3.6846 -2.96373,-4.76229 -5.4363,-4.39333 m 272.64001,1.49778 -9.6,25.92 -10.56,-8.64 8.64,-8.64 11.52,-8.64 m -165.12001,5.76 v 0.96 c -9.57348,5.90891 -19.62808,17.95265 -30.72,20.16 l 5.76,-24.96 24.96,3.84 m -81.6,-1.92 v 10.56 c -9.23475,6.42258 -35.35582,15.32777 -42.24,2.88 15.63831,-0.32285 28.48086,-7.01605 42.24,-13.44 m 138.24001,4.8 c -4.61561,8.19348 -18.06,9.57404 -23.04,0.96 l 23.04,-0.96 m -42.24,10.56 v 0.96 c -4.06632,3.62812 -6.93961,7.8501 -9.7815,12.48 -2.00651,3.26894 -4.49927,6.68988 -5.39183,10.4741 -1.29175,5.47664 1.54483,11.116 4.65554,15.43184 5.3294,7.39406 14.91979,13.48535 23.95779,15.05847 11.52345,2.00578 28.87552,0.43793 31.21851,16.63559 1.68659,11.65992 -10.26636,19.00289 -19.69851,22.03113 -18.12689,5.81959 -49.64752,0.23666 -64.27852,-11.96818 -8.22214,-6.85869 -9.48642,-18.29455 -8.51851,-28.30295 0.92329,-9.54703 1.64253,-20.42695 -10.72298,-22.08 7.28974,-15.34154 21.39698,-20.31774 34.56,-30.01483 3.42627,-2.5241 9.89561,-9.3965 14.36221,-9.18445 3.64992,0.17329 7.28121,6.07327 9.6378,8.47928 m 61.44,-5.76 v 0.96 c -14.93104,11.9918 -13.61581,37.65492 0.97482,49.65334 5.84511,4.80662 15.95423,6.16412 23.02518,8.90666 v 1.92 c -9.94541,3.53766 -17.73126,2.13732 -27.84,0.25037 -2.87579,-0.53678 -8.50582,-0.44215 -9.96668,-3.54592 -3.59385,-7.63558 6.01995,-22.80047 -4.61406,-28.17035 -4.06236,-2.05143 -17.14172,4.18951 -21.89926,5.5459 v -13.44 c 1.64712,0.20818 19.87898,1.24207 14.74962,-4.1526 -2.06141,-2.16803 -9.75606,-0.87598 -12.82962,-1.6074 v -1.92 c 11.66109,-7.85904 24.4359,-16.28042 38.4,-14.4 m 75.84,17.28 v 1.92 c -10.18512,5.67041 -26.04481,-12.50731 -33.38075,-0.90668 -9.82013,15.52904 17.86624,37.82051 26.92372,47.86078 2.90364,3.21867 12.80484,13.67315 7.65407,18.42 -2.41629,2.22674 -4.75175,-0.13869 -6.1222,-2.11851 -5.64893,-8.16094 -13.93658,-15.01518 -22.91484,-19.30225 -9.97248,-4.7618 -21.25254,-9.02977 -31.68,-12.7074 -4.71299,-1.66219 -10.30635,-1.71774 -13.94816,-5.58961 -11.13589,-11.83957 -10.33166,-38.66895 8.18816,-42.48079 5.67465,-1.16798 12.50557,0.95891 18.24,1.37926 17.93346,1.31458 32.36305,2.64712 47.04,13.5252 m -282.24001,-11.52 -2.88,-0.96 2.88,0.96 m 287.04001,68.16 c -8.92395,-13.20469 -19.48409,-24.06955 -29.32445,-36.48369 -2.94753,-3.71848 -7.03365,-10.07233 -4.5222,-15.05116 3.38285,-6.70623 17.66651,4.64514 22.32665,5.0904 3.07432,0.29378 5.66809,-1.63319 8.64,-1.97848 13.36456,-1.55285 15.44865,-2.71166 23.03112,-13.93488 1.39793,-2.06913 5.40542,-6.00472 7.62073,-2.57479 2.64891,4.10121 -3.64945,14.11248 -5.44667,17.8926 -7.37094,15.50355 -15.74868,31.24816 -22.32518,47.04 m -122.88,-19.2 c -4.90562,-0.0438 -8.99127,-1.07285 -13.44,-3.18738 -13.88734,-6.60082 -18.40755,-17.45567 -10.37555,-30.41262 1.72875,-2.78877 3.5891,-6.92731 6.71259,-8.4126 3.86223,-1.83656 11.14148,3.27469 12.68297,6.8052 2.61708,5.99402 -0.79981,15.5247 -0.77854,21.7674 0.0162,4.74146 3.07479,9.38666 5.19853,13.44 m 22.08,-20.16 v 23.04 c -5.7063,-0.31242 -20.69877,-9.3876 -15.32965,-16.77188 2.60721,-3.5857 6.25766,0.62098 9.35408,-0.11109 2.5408,-0.6007 3.32309,-4.07004 4.05557,-6.15703 z"
       id="path1" /></g></svg>
